<svg width="127" height="126" viewBox="0 0 127 126" fill="none" xmlns="http://www.w3.org/2000/svg">
<path d="M125.968 97.757C126.258 97.867 126.518 97.9071 126.308 98.3371C123.978 103.147 121.128 107.567 116.728 110.767C113.432 113.104 109.37 114.098 105.368 113.547C101.578 113.147 98.0276 111.847 94.4276 110.717C92.5036 110.053 90.5216 109.571 88.5076 109.277C87.0124 109.015 85.4735 109.181 84.0686 109.756C82.6637 110.331 81.45 111.292 80.5676 112.527C78.5487 114.997 76.805 117.679 75.3676 120.527L75.2877 120.477L76.6976 116.817C77.7308 115.027 78.9222 113.334 80.2576 111.757C81.0474 110.669 82.0182 109.726 83.1276 108.967C84.949 107.933 87.0412 107.477 89.1276 107.657C92.8476 107.847 96.3876 108.987 100.008 109.717C102.809 110.409 105.715 110.575 108.578 110.207C112.468 109.527 115.268 107.207 117.498 104.117C118.943 102.029 120.163 99.7928 121.138 97.4471C121.318 97.0271 121.258 96.8171 120.848 96.5771C116.638 94.0671 114.708 90.277 114.638 85.427C114.638 82.937 114.948 80.4271 115.058 77.9871C115.168 75.5471 115.058 72.897 113.258 70.787C112.048 69.5704 110.558 68.6705 108.918 68.1671C108.279 68.0016 107.659 67.7704 107.068 67.4771C107.101 67.4917 107.136 67.4992 107.173 67.4992C107.209 67.4992 107.245 67.4917 107.278 67.4771C107.278 67.4771 107.088 67.4771 107.068 67.4771C107.068 67.0271 107.068 66.5771 107.128 66.1371C107.128 66.0371 107.128 65.927 107.128 65.827C107.164 65.7958 107.205 65.769 107.248 65.747C107.518 65.627 107.848 65.677 108.638 65.857C108.966 65.9475 109.3 66.0143 109.638 66.0571C109.764 66.045 109.891 66.045 110.018 66.0571H110.118C110.598 66.1871 111.118 66.3371 111.558 66.4771C114.558 67.3671 116.058 69.4771 116.558 72.4771C116.79 74.791 116.706 77.1258 116.308 79.4171C115.803 82.3928 115.762 85.4289 116.188 88.4171C116.501 90.1565 117.242 91.7909 118.343 93.1733C119.445 94.5557 120.872 95.6428 122.498 96.3371C123.629 96.8709 124.787 97.3449 125.968 97.757V97.757Z" fill="#92C4EB"/>
<path d="M40.2677 84.5877C40.6377 81.7277 39.3677 79.6877 37.0877 78.1377C36.7877 77.9377 36.4977 77.7077 36.1877 77.5077C35.9889 77.3766 35.7737 77.2724 35.5476 77.1977C34.5476 76.8577 34.3677 76.0977 34.2477 75.1977C33.8225 71.5731 32.8935 68.0255 31.4876 64.6577C29.5177 60.5122 26.5403 56.9263 22.8277 54.2277C18.1877 50.6077 13.1477 47.5877 8.18765 44.4577C5.70774 43.0334 3.46984 41.2242 1.55765 39.0977C0.911005 38.3543 0.430344 37.4816 0.147674 36.5377C-0.362326 34.6277 0.457681 32.9177 2.46768 31.7177C4.24561 30.7134 6.20198 30.0647 8.22769 29.8077C15.6136 28.6233 23.1716 29.1224 30.3377 31.2677C31.0277 31.4777 31.0277 31.1377 31.0677 30.6677C31.1726 27.9943 30.7618 25.3257 29.8577 22.8077C29.5477 21.7477 29.2877 20.6677 28.9577 19.6077C28.8077 19.1377 28.9577 19.0177 29.3877 18.9477C31.4977 18.6277 33.6077 18.2377 35.7177 17.9477C36.061 17.9013 36.4103 17.956 36.7229 18.1052C37.0356 18.2544 37.2979 18.4916 37.4777 18.7877C38.197 19.8582 39.1587 20.7439 40.2846 21.3729C41.4106 22.0019 42.669 22.3564 43.9577 22.4077C45.9529 22.4671 47.9288 22.0016 49.6877 21.0577C52.7845 19.5393 55.5288 17.3888 57.7437 14.745C59.9587 12.1012 61.5951 9.02261 62.5476 5.70771C63.0148 4.10121 63.1308 2.41299 62.8877 0.757706C62.8177 0.177706 62.9777 0.0877071 63.4777 0.0677071C65.4777 -0.0322929 67.5477 -0.0122929 69.5777 0.0677071C71.8077 0.147707 74.0177 0.207706 76.2477 0.257706C76.7177 0.257706 76.8577 0.407707 76.9977 0.887707C77.634 2.74722 78.6564 4.45116 79.9977 5.88771C83.7356 10.1781 88.0937 13.8857 92.9276 16.8877C99.3766 21.327 106.526 24.65 114.078 26.7177C117.534 27.6114 121.088 28.0749 124.658 28.0977C125.056 28.0976 125.452 28.148 125.838 28.2477C126.018 28.2623 126.193 28.3188 126.348 28.4126C126.504 28.5064 126.635 28.635 126.732 28.7882C126.829 28.9414 126.889 29.1151 126.907 29.2955C126.926 29.4759 126.902 29.6581 126.838 29.8277C125.211 37.1422 122.178 44.0707 117.908 50.2277C115.725 53.5114 113.269 56.6056 110.568 59.4777C108.802 61.2162 107.627 63.4654 107.208 65.9077L107.108 66.0077C107.021 66.148 106.989 66.3153 107.018 66.4777C107.018 67.2277 106.968 67.4777 107.108 67.5577C107.108 67.6877 107.108 67.8177 107.108 67.9577C107.098 67.9701 107.086 67.9802 107.072 67.9872C107.059 67.9941 107.043 67.9977 107.028 67.9977C107.012 67.9977 106.997 67.9941 106.983 67.9872C106.969 67.9802 106.957 67.9701 106.948 67.9577C106.627 65.8276 106.977 63.6505 107.948 61.7277C109.331 58.9264 110.954 56.2498 112.798 53.7277C116.233 48.8667 119.083 43.617 121.288 38.0877C122.137 35.7833 122.806 33.4161 123.288 31.0077C123.388 30.4777 123.288 30.3377 122.758 30.2877C115.641 29.6999 108.662 27.9923 102.078 25.2277C93.4284 21.7883 85.5063 16.7466 78.7277 10.3677C76.3279 8.19679 74.3658 5.58647 72.9477 2.67771C72.8978 2.53127 72.8014 2.40514 72.6732 2.3185C72.5451 2.23185 72.3921 2.18944 72.2376 2.19771C70.1176 2.19771 68.0077 2.11771 65.8877 2.03771C65.2077 2.03771 64.9677 2.08771 65.0777 2.91771C65.2946 5.19615 64.8466 7.48863 63.7877 9.51771C61.976 13.0524 59.6131 16.2761 56.7877 19.0677C54.857 21.1165 52.5389 22.7616 49.9677 23.9077C46.6877 25.3977 43.3177 25.9077 39.8277 24.5977C38.2433 23.9814 36.8278 22.9978 35.6977 21.7277C35.49 21.4346 35.1859 21.2239 34.8385 21.1325C34.4912 21.041 34.1227 21.0748 33.7976 21.2277C33.2676 21.4377 32.4277 21.3177 32.2477 21.7577C32.0677 22.1977 32.4476 22.8577 32.6176 23.4077C33.6951 26.3382 33.762 29.5448 32.8076 32.5177C32.3776 33.7577 31.9276 33.9377 30.7376 33.4577C26.169 31.6188 21.2385 30.8558 16.3277 31.2277C13.4731 31.3675 10.66 31.9686 7.99765 33.0077C7.22195 33.3133 6.49184 33.7238 5.82767 34.2277C5.47514 34.468 5.17404 34.7761 4.94199 35.1341C4.70993 35.4921 4.55158 35.8928 4.47617 36.3127C4.40075 36.7326 4.4098 37.1634 4.50278 37.5797C4.59575 37.9961 4.77079 38.3898 5.01767 38.7377C6.10261 40.3439 7.5302 41.6895 9.19766 42.6777C12.5677 44.9177 15.9777 47.0877 19.3377 49.3477C22.0536 51.1791 24.649 53.1832 27.1077 55.3477C31.1646 58.9397 33.8505 63.8273 34.7077 69.1777C35.081 71.1225 35.3547 73.085 35.5277 75.0577C35.528 75.2796 35.5898 75.4972 35.7063 75.6861C35.8228 75.8749 35.9895 76.0278 36.1877 76.1277C37.3484 76.7694 38.4012 77.5894 39.3076 78.5577C39.984 79.1985 40.4679 80.0156 40.7046 80.9167C40.9414 81.8178 40.9217 82.7672 40.6477 83.6577C40.5477 83.9877 40.4877 84.3177 40.4077 84.6577C40.3477 84.6577 40.2876 84.7277 40.2376 84.6577C40.1876 84.5877 40.2377 84.6277 40.2677 84.5877Z" fill="#92C4EB"/>
<path d="M35.6976 79.1378C35.8102 78.5816 35.9708 78.0362 36.1776 77.5078V77.5078C36.2376 77.5978 35.6776 79.8078 35.1776 83.3578C34.8376 85.8978 34.4476 88.4278 34.1776 90.9778C33.7376 94.8378 33.3276 98.6978 32.6376 102.518C32.1651 105.547 31.3706 108.517 30.2676 111.378C30.0876 111.828 29.9876 112.088 30.6776 112.058C38.8976 111.818 46.9476 113.058 54.9576 114.708C60.7181 115.815 66.3976 117.308 71.9576 119.178C73.0319 119.543 74.0866 119.964 75.1176 120.438C75.1738 120.458 75.2275 120.485 75.2776 120.518L74.9077 121.518C75.0577 121.198 75.2077 120.898 75.3577 120.598C75.5177 120.718 75.5577 120.858 75.3577 121.158C74.5377 122.508 73.7577 123.898 72.9677 125.268C72.8177 125.528 72.7276 125.758 72.3176 125.528C68.5255 123.538 64.5243 121.975 60.3876 120.868C53.627 118.774 46.7218 117.18 39.7277 116.098C35.475 115.39 31.1686 115.055 26.8577 115.098H26.2776C26.6076 114.348 26.9277 113.658 27.2177 112.968C29.493 107.331 31.1917 101.477 32.2877 95.4978C33.0777 91.4978 33.7676 87.5478 34.8276 83.6478C34.8989 83.5083 34.9526 83.3605 34.9876 83.2078C34.9376 83.3578 34.8676 83.4978 34.8276 83.6478C34.8276 83.6478 35.0077 82.8178 35.2277 81.6978C35.5077 80.3678 35.4576 80.1478 35.6976 79.1378Z" fill="#92C4EB"/>
<path d="M72.4276 43.9981C71.2335 44.0046 70.081 43.5603 69.2003 42.7538C68.3197 41.9473 67.7759 40.8381 67.6776 39.6481C67.6213 39.0241 67.6888 38.3951 67.8761 37.7972C68.0634 37.1993 68.3669 36.6443 68.7692 36.164C69.1715 35.6837 69.6646 35.2875 70.2204 34.9982C70.7761 34.7089 71.3835 34.5321 72.0077 34.4781C72.1475 34.4683 72.2878 34.4683 72.4276 34.4781C73.6817 34.4385 74.901 34.8947 75.8211 35.7478C76.7412 36.6009 77.288 37.7822 77.3433 39.0357C77.3985 40.2892 76.9577 41.514 76.1162 42.4447C75.2747 43.3754 74.1004 43.9371 72.8477 44.0081L72.4276 43.9981Z" fill="#738FB4"/>
<path d="M72.4276 41.8864C73.8967 41.8864 75.0876 40.6955 75.0876 39.2264C75.0876 37.7573 73.8967 36.5664 72.4276 36.5664C70.9585 36.5664 69.7676 37.7573 69.7676 39.2264C69.7676 40.6955 70.9585 41.8864 72.4276 41.8864Z" fill="#738FB4"/>
<path d="M75.0776 16.2774C73.8835 16.2839 72.7309 15.8395 71.8503 15.0331C70.9696 14.2266 70.4259 13.1174 70.3276 11.9274C70.2672 11.3039 70.3325 10.6746 70.5197 10.0768C70.7069 9.47905 71.0123 8.92495 71.4177 8.44736C71.8187 7.96487 72.3116 7.56697 72.8679 7.27683C73.4241 6.98669 74.0325 6.81011 74.6577 6.75736C74.7975 6.74755 74.9378 6.74755 75.0776 6.75736C76.3035 6.76149 77.4808 7.23744 78.3651 8.08646C79.2494 8.93548 79.7729 10.0924 79.827 11.3171C79.881 12.5418 79.4614 13.7403 78.6553 14.6639C77.8492 15.5875 76.7184 16.1653 75.4976 16.2774C75.3578 16.2872 75.2175 16.2872 75.0776 16.2774V16.2774Z" fill="#EDB814"/>
<path d="M75.0876 14.1677C76.5567 14.1677 77.7476 12.9767 77.7476 11.5077C77.7476 10.0386 76.5567 8.84766 75.0876 8.84766C73.6186 8.84766 72.4276 10.0386 72.4276 11.5077C72.4276 12.9767 73.6186 14.1677 75.0876 14.1677Z" fill="#EDB814"/>
<path d="M91.2476 83.3281C90.3394 83.3304 89.4494 83.0729 88.6827 82.5858C87.9161 82.0987 87.3048 81.4025 86.921 80.5792C86.5373 79.756 86.3971 78.8401 86.517 77.9398C86.6369 77.0395 87.0119 76.1922 87.5977 75.4981C87.996 75.015 88.487 74.6167 89.0418 74.3264C89.5965 74.0362 90.2037 73.8599 90.8277 73.8081C90.9708 73.7983 91.1145 73.7983 91.2577 73.8081C92.5118 73.7686 93.7309 74.2247 94.651 75.0778C95.5711 75.9309 96.1181 77.1122 96.1733 78.3657C96.2286 79.6192 95.7877 80.844 94.9462 81.7747C94.1047 82.7054 92.9304 83.2671 91.6776 83.3381L91.2476 83.3281Z" fill="#738FB4"/>
<path d="M91.2476 81.2165C92.7167 81.2165 93.9077 80.0256 93.9077 78.5565C93.9077 77.0874 92.7167 75.8965 91.2476 75.8965C89.7785 75.8965 88.5876 77.0874 88.5876 78.5565C88.5876 80.0256 89.7785 81.2165 91.2476 81.2165Z" fill="#738FB4"/>
<path d="M57.8276 108.967C56.5735 109.007 55.3544 108.551 54.4343 107.698C53.5142 106.845 52.9672 105.663 52.912 104.41C52.8567 103.156 53.2976 101.932 54.1391 101.001C54.9806 100.07 56.1549 99.5085 57.4076 99.4375H57.8376C59.0635 99.4416 60.2408 99.9176 61.1251 100.767C62.0094 101.616 62.5329 102.773 62.587 103.997C62.641 105.222 62.2214 106.42 61.4153 107.344C60.6092 108.268 59.4784 108.845 58.2576 108.957C58.1147 108.971 57.971 108.974 57.8276 108.967V108.967Z" fill="#738FB4"/>
<path d="M57.8276 106.857C59.2967 106.857 60.4876 105.666 60.4876 104.197C60.4876 102.728 59.2967 101.537 57.8276 101.537C56.3586 101.537 55.1676 102.728 55.1676 104.197C55.1676 105.666 56.3586 106.857 57.8276 106.857Z" fill="#738FB4"/>
<path d="M41.7176 93.2976C40.4635 93.3371 39.2444 92.8809 38.3243 92.0278C37.4042 91.1747 36.8572 89.9935 36.802 88.74C36.7467 87.4865 37.1876 86.2617 38.0291 85.3309C38.8706 84.4002 40.0449 83.8385 41.2976 83.7676H41.7176C42.6269 83.7658 43.5176 84.0239 44.285 84.5116C45.0524 84.9992 45.6645 85.6959 46.0491 86.5198C46.4337 87.3437 46.5748 88.2603 46.4559 89.1617C46.3369 90.0631 45.9628 90.9117 45.3776 91.6076C44.562 92.5752 43.3979 93.1824 42.1376 93.2976H41.7176Z" fill="#738FB4"/>
<path d="M41.7177 91.1774C43.1867 91.1774 44.3776 89.9865 44.3776 88.5174C44.3776 87.0483 43.1867 85.8574 41.7177 85.8574C40.2486 85.8574 39.0576 87.0483 39.0576 88.5174C39.0576 89.9865 40.2486 91.1774 41.7177 91.1774Z" fill="#738FB4"/>
<path d="M100.838 110.227C99.9301 110.225 99.042 109.964 98.2772 109.476C97.5124 108.988 96.9023 108.292 96.5185 107.469C96.1346 106.647 95.9928 105.732 96.1095 104.832C96.2262 103.933 96.5966 103.084 97.1776 102.387C97.9932 101.42 99.1574 100.812 100.418 100.697H100.838C102.064 100.701 103.241 101.177 104.125 102.026C105.009 102.875 105.533 104.032 105.587 105.257C105.641 106.482 105.221 107.68 104.415 108.604C103.609 109.527 102.478 110.105 101.258 110.217C101.118 110.23 100.978 110.234 100.838 110.227V110.227Z" fill="#738FB4"/>
<path d="M102.168 46.1177C100.974 46.1243 99.8209 45.6799 98.9403 44.8734C98.0596 44.0669 97.5159 42.9578 97.4176 41.7677C97.3063 40.5061 97.6981 39.2517 98.5076 38.2777C98.9086 37.7952 99.4016 37.3973 99.9578 37.1072C100.514 36.817 101.122 36.6405 101.748 36.5877H102.178C103.429 36.5536 104.644 37.013 105.56 37.8667C106.476 38.7204 107.019 39.9 107.073 41.1509C107.127 42.4018 106.687 43.6237 105.848 44.5529C105.008 45.4822 103.838 46.0442 102.588 46.1177H102.168Z" fill="#738FB4"/>
<path d="M102.168 43.9977C103.637 43.9977 104.828 42.8068 104.828 41.3377C104.828 39.8687 103.637 38.6777 102.168 38.6777C100.699 38.6777 99.5076 39.8687 99.5076 41.3377C99.5076 42.8068 100.699 43.9977 102.168 43.9977Z" fill="#738FB4"/>
</svg>
