<svg width="54" height="78" viewBox="0 0 54 78" fill="none" xmlns="http://www.w3.org/2000/svg">
<path d="M53.5182 67.7951C53.4382 67.7951 53.5182 67.6851 53.4582 67.6351C53.4028 67.1063 53.1782 66.6095 52.8179 66.2186C52.4575 65.8276 51.9807 65.5634 51.4582 65.4651C51.2508 65.4172 51.0403 65.3838 50.8282 65.3651C49.9359 65.2432 49.028 65.4093 48.2366 65.8391C47.4452 66.269 46.8117 66.9402 46.4282 67.7551C45.8962 68.8832 45.6752 70.133 45.7882 71.3751C45.7814 71.9134 45.9506 72.4391 46.2701 72.8724C46.5897 73.3056 47.0419 73.6226 47.5582 73.7751C48.1684 73.9734 48.8144 74.0367 49.4515 73.9607C50.0887 73.8848 50.7017 73.6713 51.2482 73.3351C51.7679 72.9833 52.2124 72.5315 52.5557 72.0061C52.8991 71.4808 53.1345 70.8923 53.2482 70.2751C53.2877 69.9369 53.3546 69.6025 53.4482 69.2751V69.0051C53.4087 68.9056 53.4087 68.7946 53.4482 68.6951V68.2651C53.408 68.1622 53.408 68.048 53.4482 67.9451L53.5182 67.7951ZM51.7882 71.2451C51.4965 71.8487 51.011 72.3372 50.4092 72.6326C49.8075 72.928 49.1241 73.0134 48.4682 72.8751C48.0665 72.8147 47.6987 72.6156 47.4284 72.3124C47.1581 72.0092 47.0023 71.6211 46.9882 71.2151C46.9882 71.0151 46.9882 70.8051 46.9882 70.5951C46.9842 69.6893 47.1932 68.7953 47.5982 67.9851C47.9124 67.3775 48.4248 66.8956 49.0504 66.6191C49.6761 66.3427 50.3774 66.2884 51.0382 66.4651C51.4114 66.5413 51.7467 66.7442 51.9873 67.0395C52.2279 67.3348 52.359 67.7042 52.3582 68.0851C52.4765 69.1682 52.2894 70.2628 51.8182 71.2451H51.7882Z" fill="#253882"/>
<path d="M7.70817 77.336C7.59805 77.2782 7.51227 77.1829 7.46641 77.0673C7.42054 76.9517 7.41763 76.8235 7.45817 76.706C7.49733 76.5813 7.57615 76.4728 7.68265 76.3969C7.78915 76.3211 7.91749 76.2822 8.04816 76.286C8.30786 76.2829 8.56628 76.2493 8.81815 76.186C9.2529 76.0746 9.64393 75.8346 9.9401 75.4974C10.2363 75.1602 10.4238 74.7415 10.4782 74.296C10.8182 72.566 11.1082 70.846 11.4082 69.126C11.5382 68.366 11.6682 67.606 11.8082 66.856C11.8082 66.686 11.8082 66.656 11.6482 66.666H11.3082C11.2096 66.6805 11.1089 66.6619 11.022 66.613C10.9352 66.5641 10.867 66.4878 10.8282 66.396C10.7903 66.3004 10.7806 66.1959 10.8001 66.095C10.8195 65.994 10.8675 65.9007 10.9382 65.826C11.0213 65.7365 11.1244 65.6681 11.2392 65.6264C11.354 65.5846 11.477 65.5708 11.5981 65.586C12.0481 65.586 12.0582 65.586 12.1182 65.146C12.1864 64.2509 12.5091 63.3939 13.0482 62.676C13.3976 62.2595 13.8409 61.9318 14.3415 61.7198C14.8421 61.5077 15.3859 61.4173 15.9282 61.456C16.0067 61.4618 16.0824 61.4882 16.1476 61.5324C16.2128 61.5767 16.2652 61.6373 16.2996 61.7082C16.334 61.779 16.3492 61.8577 16.3437 61.9363C16.3382 62.0149 16.3121 62.0906 16.2682 62.156C16.2136 62.2704 16.1268 62.3664 16.0185 62.4322C15.9101 62.4979 15.7849 62.5305 15.6582 62.526C15.0918 62.498 14.5366 62.6908 14.1095 63.0638C13.6824 63.4369 13.4167 63.961 13.3682 64.526C13.3182 64.816 13.2882 65.116 13.2182 65.396C13.1482 65.676 13.2181 65.576 13.3781 65.576H14.7182C14.9782 65.576 15.1782 65.626 15.2682 65.896C15.2955 66.0211 15.2821 66.1517 15.23 66.2686C15.1778 66.3856 15.0895 66.4828 14.9782 66.546C14.8479 66.622 14.6989 66.6601 14.5482 66.656H13.2382C13.0682 66.656 12.9982 66.656 12.9582 66.876C12.5482 69.306 12.1182 71.746 11.6882 74.176C11.6095 74.823 11.3542 75.4359 10.9502 75.9474C10.5463 76.459 10.0093 76.8494 9.39817 77.076C9.08817 77.186 8.76816 77.206 8.44816 77.316H8.29816C8.25588 77.2963 8.20979 77.2861 8.16315 77.2861C8.11651 77.2861 8.07046 77.2963 8.02817 77.316L7.70817 77.336Z" fill="#253882"/>
<path d="M53.5182 68.2748C53.4795 68.2325 53.4581 68.1772 53.4581 68.1198C53.4581 68.0625 53.4795 68.0072 53.5182 67.9648V68.2748Z" fill="#253882"/>
<path d="M53.5182 69.0248C53.4795 68.9825 53.4581 68.9272 53.4581 68.8698C53.4581 68.8125 53.4795 68.7572 53.5182 68.7148V69.0248Z" fill="#253882"/>
<path d="M8.0282 77.3346C8.06342 77.3016 8.10991 77.2832 8.1582 77.2832C8.2065 77.2832 8.25296 77.3016 8.28818 77.3346H8.0282Z" fill="#253882"/>
<path d="M52.1982 5.03558C52.1433 4.90138 52.0625 4.77932 51.9604 4.67645C51.8582 4.57358 51.7368 4.49192 51.603 4.43616C51.4691 4.3804 51.3256 4.35163 51.1806 4.35153C51.0356 4.35143 50.8921 4.38 50.7582 4.43558L50.6182 4.50559C50.4029 4.61746 50.2134 4.77309 50.0619 4.96253C49.9103 5.15196 49.8 5.37099 49.7381 5.60556C49.6781 5.80556 49.6282 5.91556 49.3882 5.82556C49.2051 5.78039 49.0167 5.76021 48.8282 5.76556C47.5428 5.70077 46.2745 6.08233 45.2382 6.84558C44.1307 7.6379 43.1753 8.62373 42.4182 9.75559C41.1241 11.6241 40.0535 13.6378 39.2282 15.7556C37.5031 20.1088 36.1417 24.5975 35.1582 29.1756C34.8682 30.4056 34.6082 31.6456 34.3482 32.8856C34.3227 32.9056 34.3051 32.9339 34.2982 32.9656C34.2878 32.8893 34.2878 32.8119 34.2982 32.7356C34.2925 32.7092 34.2925 32.6819 34.2982 32.6556V32.4656C34.4982 29.4656 34.6582 26.4056 34.7182 23.3656C34.8668 19.1031 34.7098 14.8356 34.2482 10.5956C34.0749 9.01398 33.7603 7.45105 33.3082 5.92557C32.9553 4.51556 32.218 3.2312 31.1782 2.21558C31.0782 2.13558 31.1082 2.04556 31.1182 1.94556C31.1669 1.57396 31.1396 1.19635 31.0382 0.835572C30.9922 0.66053 30.9045 0.499227 30.7826 0.365479C30.6607 0.231732 30.5082 0.129523 30.3381 0.0675973C30.1681 0.00567139 29.9855 -0.0141097 29.8062 0.0099191C29.6268 0.033948 29.4559 0.101068 29.3082 0.205567C29.0315 0.378031 28.8054 0.620543 28.6526 0.90854C28.4998 1.19654 28.4258 1.5198 28.4382 1.84558C28.4048 2.07138 28.436 2.30199 28.5282 2.5108C28.6203 2.71962 28.7696 2.89813 28.9589 3.0257C29.1482 3.15327 29.3696 3.22469 29.5978 3.23175C29.8259 3.23881 30.0514 3.18121 30.2482 3.06558C30.3162 3.02572 30.3956 3.00996 30.4736 3.02084C30.5516 3.03173 30.6237 3.06864 30.6782 3.12558C31.0369 3.45322 31.3289 3.84712 31.5382 4.28558C32.2644 5.74835 32.7506 7.3184 32.9782 8.93558C33.2795 10.7729 33.4765 12.6259 33.5682 14.4856C33.7482 17.4856 33.7482 20.4856 33.6882 23.5656C33.6282 26.6456 33.4782 29.4056 33.2782 32.3156C33.1682 34.0456 33.0382 35.7556 32.8982 37.4756C32.7182 39.4756 32.5282 41.4756 32.3282 43.4756C32.1282 45.4756 31.9049 47.5089 31.6582 49.5756C31.4182 51.6756 31.1382 53.7756 30.8782 55.8656L30.6682 57.3656C30.6001 57.2178 30.5465 57.0637 30.5082 56.9056C29.7571 53.9603 28.4982 51.1685 26.7882 48.6556C24.9147 45.8742 22.155 43.8088 18.9582 42.7956C16.0659 41.9492 13.0107 41.8222 10.0582 42.4256C7.51262 42.8864 5.04489 43.7045 2.72817 44.8556C2.58817 44.9256 2.52819 44.9156 2.43819 44.7756C2.3667 44.6514 2.27143 44.5425 2.15782 44.4552C2.04422 44.3678 1.9145 44.3038 1.77611 44.2666C1.63772 44.2295 1.49337 44.22 1.35131 44.2387C1.20924 44.2574 1.07224 44.3039 0.948169 44.3756C0.567107 44.6112 0.276216 44.9679 0.122089 45.3886C-0.0320392 45.8093 -0.0404832 46.2695 0.0981628 46.6956C0.195969 46.975 0.399538 47.2049 0.665088 47.3358C0.930638 47.4667 1.23697 47.4882 1.51818 47.3956L1.74819 47.2856C2.15571 47.0482 2.45907 46.6662 2.59816 46.2156C2.61339 46.1575 2.64093 46.1033 2.67888 46.0567C2.71683 46.0101 2.76431 45.9722 2.81816 45.9456C3.42816 45.6356 4.05819 45.3456 4.68819 45.0856C8.0487 43.5778 11.72 42.8922 15.3982 43.0856C17.4089 43.2256 19.3662 43.7951 21.1382 44.7556C23.4082 46.0499 25.3006 47.9148 26.6282 50.1656C28.1486 52.7416 29.2491 55.5434 29.8882 58.4656C29.9712 58.7459 30.0248 59.0341 30.0482 59.3256C29.124 57.9146 28.1225 56.5559 27.0482 55.2556C26.0218 54.0138 24.8347 52.9142 23.5182 51.9856C22.5744 51.2663 21.4505 50.8214 20.2702 50.6996C19.0899 50.5779 17.8989 50.7841 16.8282 51.2956C16.1682 51.5956 15.5282 51.9156 14.8282 52.2356C14.7801 52.2745 14.7201 52.2958 14.6582 52.2958C14.5963 52.2958 14.5363 52.2745 14.4882 52.2356C14.3311 52.108 14.1389 52.0311 13.9372 52.015C13.7354 51.9989 13.5335 52.0445 13.3582 52.1456C12.9438 52.3694 12.625 52.7363 12.4612 53.1779C12.2974 53.6196 12.2999 54.1057 12.4682 54.5456C12.5774 54.821 12.7913 55.042 13.063 55.1601C13.3348 55.2782 13.6423 55.2837 13.9182 55.1756L14.0582 55.1056C14.2684 54.9934 14.4539 54.8399 14.6034 54.6543C14.7528 54.4687 14.8633 54.2549 14.9282 54.0256C14.9882 53.8122 15.0382 53.6022 15.0782 53.3956C15.0828 53.3466 15.1012 53.2999 15.1313 53.2609C15.1614 53.222 15.2019 53.1924 15.2482 53.1756C15.9582 52.8556 16.6482 52.4756 17.3782 52.1756C18.2091 51.7944 19.1253 51.6372 20.0358 51.7196C20.9462 51.8021 21.8192 52.1213 22.5682 52.6456C24.0554 53.6454 25.3722 54.8778 26.4682 56.2956C27.6277 57.7366 28.6997 59.246 29.6782 60.8156C29.7173 60.9033 29.7853 60.9749 29.8708 61.0186C29.9563 61.0623 30.0542 61.0753 30.1482 61.0556C30.6482 61.0056 31.1482 60.9656 31.6382 60.9456C31.8982 60.9456 31.9782 60.8456 32.0282 60.5956C32.4337 58.5267 33.0815 56.5129 33.9582 54.5956C34.5743 53.1536 35.5154 51.8735 36.7082 50.8556C37.2372 50.3976 37.8621 50.0637 38.5369 49.8786C39.2117 49.6935 39.9195 49.6617 40.6082 49.7856C40.9882 49.8556 40.9882 49.8556 40.9482 50.2356C40.9106 50.5157 40.9605 50.8007 41.0912 51.0513C41.2219 51.3019 41.4269 51.506 41.6782 51.6356C41.9355 51.7296 42.2162 51.7385 42.479 51.6611C42.7418 51.5837 42.9729 51.4241 43.1382 51.2056C43.4773 50.8271 43.6597 50.3337 43.6482 49.8256C43.6645 49.5733 43.6058 49.3219 43.4794 49.1031C43.3531 48.8842 43.1647 48.7076 42.9382 48.5956C42.7115 48.4945 42.4585 48.4681 42.2158 48.5202C41.9732 48.5723 41.7533 48.7003 41.5882 48.8856C41.4882 48.9856 41.4082 48.9456 41.3082 48.8856C39.9309 48.4766 38.4482 48.6238 37.1782 49.2956C36.0051 49.9352 35.0062 50.8518 34.2682 51.9656C34.2082 52.0556 34.1782 52.1856 33.9882 52.2156C34.0586 52.1247 34.1066 52.0185 34.1282 51.9056C35.1042 48.6954 36.4676 45.6161 38.1882 42.7356C39.1057 41.2082 40.2259 39.8122 41.5182 38.5856C42.2415 37.8392 43.133 37.2768 44.1182 36.9456C44.3427 36.8683 44.5803 36.8365 44.8172 36.8519C45.0541 36.8674 45.2856 36.9298 45.4982 37.0356C45.6182 37.0956 45.6682 37.1656 45.6082 37.3056C45.5269 37.5536 45.4996 37.8161 45.5282 38.0756C45.53 38.2773 45.5843 38.4752 45.686 38.6495C45.7876 38.8238 45.9329 38.9686 46.1076 39.0696C46.2823 39.1706 46.4803 39.2242 46.6821 39.2253C46.8839 39.2263 47.0824 39.1747 47.2582 39.0756C47.6542 38.8448 47.9553 38.4807 48.1073 38.0482C48.2594 37.6158 48.2526 37.1434 48.0882 36.7156C48.0097 36.4691 47.8387 36.2627 47.6112 36.1397C47.3837 36.0166 47.1174 35.9865 46.8682 36.0556C46.6556 36.1471 46.4235 36.184 46.193 36.163C45.9624 36.1421 45.7408 36.0639 45.5482 35.9356H45.4682C44.5776 35.7375 43.6451 35.884 42.8582 36.3456C41.672 36.9949 40.6227 37.8676 39.7682 38.9156C38.0448 40.9645 36.6144 43.2429 35.5182 45.6856C34.0763 48.7849 32.9603 52.0256 32.1882 55.3556C32.1082 55.4256 32.1282 55.5256 32.1082 55.5756C32.0882 55.6256 32.1082 55.4056 32.1082 55.2956C32.1082 55.1856 32.1082 55.0456 32.1082 54.9156C32.3082 53.1089 32.5148 51.3022 32.7282 49.4956C33.0082 47.0856 33.3482 44.6956 33.7282 42.3056C34.2182 39.1156 34.7282 35.9456 35.4182 32.7956C36.1982 28.9156 37.1648 25.0856 38.3182 21.3056C39.2121 18.3225 40.3839 15.4298 41.8182 12.6656C42.5933 11.1328 43.6058 9.7322 44.8182 8.51556C45.651 7.60341 46.7685 7.00061 47.9881 6.80557C48.3775 6.70037 48.7874 6.69756 49.1781 6.79743C49.5688 6.89729 49.9271 7.09646 50.2182 7.37558C50.3655 7.51057 50.5536 7.59268 50.7527 7.60898C50.9519 7.62527 51.1508 7.57482 51.3182 7.46558C51.7378 7.23939 52.0594 6.86665 52.2217 6.41846C52.384 5.97026 52.3756 5.47799 52.1982 5.03558V5.03558ZM30.0882 2.52557C29.9935 2.6209 29.8726 2.68601 29.7409 2.71271C29.6092 2.73941 29.4725 2.72648 29.3482 2.67557C29.2276 2.61683 29.1256 2.52604 29.0533 2.41315C28.981 2.30025 28.9412 2.16963 28.9382 2.03558C28.9382 1.97558 28.9382 1.91558 28.9382 1.81558C28.9428 1.59342 28.9995 1.37543 29.1037 1.17917C29.2079 0.982909 29.3567 0.81385 29.5382 0.685578C29.6218 0.617893 29.7215 0.573103 29.8277 0.555634C29.9338 0.538166 30.0426 0.548616 30.1435 0.585938C30.2444 0.623261 30.3338 0.686186 30.403 0.768525C30.4722 0.850864 30.5188 0.949783 30.5382 1.05557C30.6039 1.31836 30.5967 1.59408 30.5174 1.85309C30.4381 2.1121 30.2897 2.3446 30.0882 2.52557V2.52557ZM1.59816 46.7456C1.50843 46.8395 1.39261 46.9044 1.26564 46.9319C1.13867 46.9594 1.00639 46.9482 0.885852 46.8997C0.765309 46.8513 0.662038 46.7678 0.589374 46.6602C0.516709 46.5525 0.477967 46.4255 0.478168 46.2956C0.442507 46.0897 0.451762 45.8786 0.505267 45.6767C0.558772 45.4747 0.655261 45.2868 0.788165 45.1256C0.880303 44.9827 1.01414 44.8715 1.17153 44.8071C1.32892 44.7427 1.50228 44.7282 1.66817 44.7656C1.94817 44.8656 2.13817 45.1756 2.13817 45.6656C2.12731 45.873 2.07374 46.0761 1.98082 46.2619C1.88791 46.4477 1.75763 46.6124 1.59816 46.7456V46.7456ZM14.1882 54.3356C14.1007 54.4771 13.9692 54.5861 13.8139 54.6457C13.6585 54.7053 13.4879 54.7123 13.3282 54.6656C13.1752 54.5863 13.0495 54.4629 12.9675 54.3113C12.8855 54.1597 12.8509 53.987 12.8682 53.8156C12.869 53.5824 12.9269 53.353 13.0367 53.1474C13.1465 52.9417 13.3049 52.766 13.4982 52.6356C13.5824 52.5678 13.6829 52.5232 13.7898 52.5063C13.8966 52.4894 14.006 52.5007 14.107 52.5391C14.2081 52.5775 14.2974 52.6417 14.366 52.7253C14.4346 52.8089 14.4802 52.9089 14.4982 53.0156C14.5616 53.2439 14.5664 53.4846 14.5123 53.7153C14.4581 53.946 14.3466 54.1593 14.1882 54.3356ZM41.7982 49.4156C41.8915 49.2655 42.0293 49.1482 42.1924 49.0801C42.3555 49.012 42.5358 48.9964 42.7082 49.0356C42.9882 49.1356 43.1482 49.4556 43.1482 49.9856C43.1374 50.2079 43.0725 50.4243 42.9593 50.616C42.846 50.8077 42.6878 50.9688 42.4982 51.0856C42.4349 51.1344 42.3624 51.1701 42.2851 51.1905C42.2077 51.211 42.1271 51.2157 42.0479 51.2045C41.9687 51.1933 41.8925 51.1665 41.8239 51.1254C41.7553 51.0844 41.6955 51.03 41.6482 50.9656C41.5901 50.9011 41.5519 50.8212 41.5382 50.7356C41.4643 50.5118 41.4494 50.2727 41.495 50.0414C41.5405 49.8102 41.645 49.5946 41.7982 49.4156V49.4156ZM46.6082 36.6956C46.6931 36.6276 46.7944 36.5833 46.9019 36.5669C47.0094 36.5505 47.1193 36.5627 47.2207 36.6022C47.322 36.6417 47.4111 36.7071 47.4791 36.792C47.5471 36.8768 47.5917 36.9781 47.6082 37.0856C47.6668 37.3102 47.6683 37.546 47.6124 37.7713C47.5565 37.9966 47.445 38.2044 47.2882 38.3756C47.1948 38.519 47.0584 38.6292 46.8985 38.6902C46.7386 38.7513 46.5634 38.7602 46.3982 38.7156C46.2498 38.633 46.1295 38.508 46.0529 38.3565C45.9763 38.205 45.9468 38.034 45.9682 37.8656C45.9709 37.6364 46.0275 37.411 46.1335 37.2077C46.2394 37.0045 46.3918 36.829 46.5782 36.6956H46.6082ZM51.3182 6.85556C51.2261 6.95487 51.1069 7.02491 50.9753 7.05692C50.8437 7.08892 50.7056 7.08151 50.5782 7.03558C50.4528 6.97676 50.3467 6.88344 50.2723 6.76657C50.198 6.6497 50.1584 6.51411 50.1582 6.37558C50.1582 6.31558 50.1582 6.24556 50.1582 6.16556C50.1602 5.93177 50.2207 5.70224 50.3343 5.49786C50.4478 5.29349 50.6107 5.12081 50.8082 4.99558C50.8911 4.92796 50.9901 4.88295 51.0956 4.86493C51.201 4.84691 51.3094 4.85649 51.41 4.89273C51.5107 4.92897 51.6003 4.99064 51.67 5.07175C51.7398 5.15285 51.7874 5.25061 51.8082 5.35556C51.8798 5.62272 51.8756 5.90455 51.7961 6.16947C51.7167 6.43438 51.565 6.67194 51.3582 6.85556H51.3182Z" fill="#253882"/>
<path d="M22.7982 70.1952C23.8603 70.2088 24.9204 70.1014 25.9582 69.8752C26.7289 69.7445 27.4468 69.3978 28.0282 68.8752C28.2858 68.6338 28.4749 68.3285 28.5763 67.9903C28.6777 67.6521 28.6878 67.2932 28.6055 66.9498C28.5232 66.6065 28.3515 66.2911 28.1079 66.0356C27.8642 65.7801 27.5573 65.5937 27.2182 65.4952C26.3798 65.2461 25.4862 65.2518 24.6511 65.5118C23.816 65.7718 23.077 66.2742 22.5282 66.9552C21.7154 68.0563 21.2931 69.3971 21.3282 70.7652C21.3201 71.0528 21.3368 71.3405 21.3782 71.6252C21.4297 72.1676 21.6583 72.678 22.0289 73.0774C22.3994 73.4769 22.8912 73.7432 23.4282 73.8352C24.4118 74.0532 25.4378 73.9766 26.3782 73.6152C26.8267 73.4576 27.236 73.2052 27.5782 72.8752C27.6604 72.785 27.706 72.6673 27.706 72.5452C27.706 72.4231 27.6604 72.3055 27.5782 72.2152C27.5031 72.1197 27.3964 72.0541 27.2772 72.0302C27.158 72.0064 27.0343 72.0259 26.9282 72.0852L26.7482 72.1952C26.0002 72.7296 25.0824 72.9716 24.1682 72.8752C23.789 72.8845 23.4183 72.7619 23.1193 72.5286C22.8202 72.2952 22.6114 71.9653 22.5282 71.5952C22.4467 71.2279 22.4197 70.8505 22.4482 70.4752C22.5182 70.2652 22.5182 70.1952 22.7982 70.1952ZM22.6882 69.1052C22.7572 68.6717 22.9138 68.2569 23.1485 67.8859C23.3832 67.515 23.691 67.1957 24.0531 66.9477C24.4153 66.6997 24.8242 66.5282 25.255 66.4435C25.6857 66.3588 26.1291 66.3628 26.5582 66.4552C26.6546 66.4746 26.7485 66.5048 26.8382 66.5452C26.9999 66.6001 27.1448 66.6954 27.2592 66.8221C27.3736 66.9488 27.4537 67.1027 27.4918 67.2691C27.5299 67.4355 27.5247 67.6089 27.4768 67.7728C27.429 67.9367 27.3399 68.0855 27.2182 68.2052C26.8612 68.5607 26.4102 68.8069 25.9182 68.9152C25.0776 69.1277 24.2151 69.2419 23.3482 69.2552H22.8082C22.6882 69.2552 22.6582 69.2552 22.6882 69.0952V69.1052Z" fill="#253882"/>
<path d="M33.6382 65.3655C34.4495 65.3351 35.2446 65.5978 35.8781 66.1055C36.0156 66.2182 36.1368 66.3495 36.2382 66.4955C36.284 66.5471 36.3192 66.6073 36.3415 66.6726C36.3638 66.738 36.3729 66.8071 36.3683 66.876C36.3636 66.9448 36.3453 67.0121 36.3144 67.0738C36.2835 67.1356 36.2406 67.1905 36.1882 67.2355C36.0926 67.3307 35.9631 67.3843 35.8282 67.3843C35.6932 67.3843 35.5638 67.3307 35.4682 67.2355C35.1475 66.9231 34.7512 66.6991 34.3181 66.5855C33.7433 66.4432 33.1398 66.4675 32.5782 66.6555C32.3687 66.714 32.1816 66.8339 32.0408 66.9996C31.9001 67.1653 31.812 67.3694 31.7881 67.5855C31.7677 67.7895 31.8105 67.9948 31.9107 68.1737C32.0108 68.3526 32.1636 68.4963 32.3481 68.5855C32.8463 68.8495 33.3646 69.0735 33.8982 69.2555C34.1282 69.3455 34.3682 69.4455 34.6082 69.5655C34.8757 69.6708 35.1175 69.8326 35.3168 70.0399C35.5162 70.2471 35.6685 70.4949 35.7635 70.7664C35.8584 71.0378 35.8936 71.3265 35.8668 71.6129C35.84 71.8992 35.7518 72.1764 35.6082 72.4255C35.4352 72.8608 35.1076 73.217 34.6882 73.4255C34.0013 73.8054 33.225 73.9939 32.4404 73.971C31.6558 73.9481 30.8917 73.7148 30.2281 73.2955C29.9682 73.1322 29.741 72.922 29.5582 72.6755C29.5095 72.628 29.4708 72.5712 29.4444 72.5085C29.418 72.4458 29.4044 72.3785 29.4044 72.3105C29.4044 72.2425 29.418 72.1751 29.4444 72.1124C29.4708 72.0498 29.5095 71.993 29.5582 71.9455C29.6065 71.8965 29.6641 71.8576 29.7277 71.8311C29.7912 71.8045 29.8593 71.7909 29.9282 71.7909C29.997 71.7909 30.0651 71.8045 30.1287 71.8311C30.1922 71.8576 30.2498 71.8965 30.2982 71.9455V71.9455C30.7684 72.3854 31.3584 72.6763 31.9938 72.7813C32.6291 72.8863 33.2814 72.8008 33.8682 72.5355C34.0993 72.4368 34.2972 72.2736 34.4382 72.0655C34.5195 71.9543 34.5769 71.8275 34.6069 71.6931C34.6369 71.5587 34.6388 71.4195 34.6125 71.2843C34.5863 71.1491 34.5324 71.0209 34.4542 70.9075C34.376 70.7941 34.2752 70.6981 34.1582 70.6255C33.7666 70.3913 33.3508 70.2002 32.9182 70.0555C32.5582 69.9155 32.1982 69.7855 31.8582 69.6155C31.4694 69.4847 31.1331 69.2322 30.899 68.8955C30.6648 68.5587 30.5453 68.1555 30.5582 67.7455C30.5535 67.2953 30.6845 66.8541 30.9342 66.4795C31.184 66.1049 31.5408 65.8143 31.9582 65.6455C32.4905 65.4289 33.0643 65.3332 33.6382 65.3655V65.3655Z" fill="#253882"/>
<path d="M38.8281 70.5157C38.8282 70.7835 38.8483 71.0509 38.8881 71.3157C38.9034 71.5444 38.9636 71.7678 39.0655 71.9731C39.1673 72.1785 39.3087 72.3617 39.4815 72.5122C39.6543 72.6627 39.8552 72.7776 40.0726 72.8503C40.29 72.923 40.5195 72.952 40.7482 72.9357C41.4221 72.9655 42.0888 72.7875 42.6582 72.4257L43.1281 72.1257C43.231 72.0682 43.3506 72.0481 43.4666 72.0689C43.5826 72.0896 43.6879 72.1499 43.7645 72.2394C43.841 72.329 43.8842 72.4423 43.8867 72.5601C43.8892 72.6779 43.8509 72.7929 43.7782 72.8857C43.7396 72.9455 43.6924 72.9994 43.6381 73.0457C43.0238 73.5057 42.3066 73.8089 41.5486 73.9292C40.7906 74.0494 40.0147 73.983 39.2881 73.7357C38.8639 73.5881 38.4916 73.3206 38.2165 72.9656C37.9413 72.6106 37.7752 72.1833 37.7382 71.7357C37.4905 70.3411 37.6973 68.9038 38.3281 67.6357C38.789 66.7441 39.5526 66.046 40.4818 65.6666C41.411 65.2872 42.445 65.2514 43.3982 65.5657C43.9291 65.7481 44.3857 66.0993 44.6981 66.5657C44.7901 66.6774 44.8344 66.8209 44.8213 66.965C44.8082 67.1092 44.7388 67.2424 44.6281 67.3357C44.5217 67.4169 44.3876 67.453 44.2547 67.4361C44.1219 67.4193 44.001 67.3509 43.9181 67.2457V67.2457C43.0481 66.0157 40.6682 66.1557 39.6882 67.5457C39.2167 68.2473 38.9405 69.0619 38.8881 69.9057C38.8381 70.0857 38.8381 70.2757 38.8281 70.5157Z" fill="#253882"/>
<path d="M18.1582 66.5852C18.4536 66.2089 18.8299 65.9039 19.2592 65.6927C19.6885 65.4815 20.1598 65.3696 20.6382 65.3652C20.9782 65.3652 21.1582 65.4652 21.2182 65.7052C21.2487 65.8467 21.2271 65.9945 21.1573 66.1213C21.0874 66.2481 20.9741 66.3454 20.8382 66.3952C20.734 66.4417 20.6221 66.4688 20.5082 66.4753C19.8581 66.4785 19.2285 66.7031 18.7231 67.1121C18.2178 67.5211 17.8668 68.0901 17.7282 68.7253C17.4782 69.6353 17.3782 70.5752 17.1982 71.5052C17.0882 72.0952 16.9882 72.6852 16.8882 73.2652C16.8696 73.4194 16.7972 73.5621 16.6838 73.6682C16.5704 73.7742 16.4232 73.837 16.2682 73.8452C16.1931 73.8598 16.1155 73.855 16.0428 73.8313C15.9701 73.8076 15.9046 73.7657 15.8526 73.7097C15.8005 73.6536 15.7637 73.5853 15.7454 73.511C15.7271 73.4367 15.7281 73.359 15.7482 73.2852C15.8282 72.6952 15.9382 72.1252 16.0382 71.5452L17.0382 66.1952C17.0982 65.8452 17.1982 65.5452 17.5782 65.4452C17.6352 65.421 17.6964 65.4085 17.7584 65.4086C17.8203 65.4086 17.8816 65.4211 17.9385 65.4454C17.9955 65.4697 18.0469 65.5052 18.0898 65.5499C18.1327 65.5945 18.1662 65.6473 18.1882 65.7052C18.2132 65.7901 18.2132 65.8804 18.1882 65.9652C18.1747 66.1331 18.1513 66.3001 18.1182 66.4652C18.0982 66.5852 18.0382 66.5852 18.1582 66.5852Z" fill="#253882"/>
<path d="M34.3481 32.8862L34.2981 33.1862C34.2505 33.0128 34.2505 32.8297 34.2981 32.6562C34.3081 32.7362 34.2681 32.8262 34.3481 32.8862Z" fill="#253882"/>
<path d="M32.1482 55.3452L32.0882 55.6252C32.0632 55.572 32.0502 55.5139 32.0502 55.4551C32.0502 55.3964 32.0632 55.3383 32.0882 55.2852L32.1482 55.3452Z" fill="#253882"/>
<path d="M18.1582 66.5865C18.1582 66.5865 18.1082 66.7065 18.0782 66.6765C18.0482 66.6465 18.0782 66.5366 18.0782 66.4766L18.1582 66.5865Z" fill="#253882"/>
<path d="M34.2182 33.5158C34.1932 33.4771 34.1799 33.4319 34.1799 33.3858C34.1799 33.3397 34.1932 33.2946 34.2182 33.2559C34.3382 33.3659 34.2482 33.4258 34.2182 33.5158Z" fill="#253882"/>
</svg>
