<svg width="512" height="512" viewBox="0 0 512 512" fill="none" xmlns="http://www.w3.org/2000/svg">
<g clip-path="url(#clip0_4_2)">
<path d="M71.1123 385.328L51.0149 420.306L67.2957 429.678L60.9187 435.234L40 423.156L64.1555 381.27L71.1123 385.328Z" fill="#262A5E"/>
<path d="M101.307 402.769L77.1511 444.461L70.1943 440.596L94.3498 398.711L101.307 402.769Z" fill="#262A5E"/>
<path d="M117.588 412.141L97.4419 447.022L113.723 456.394L107.346 462.046L86.427 449.969L110.582 408.131L117.588 412.141Z" fill="#262A5E"/>
<path d="M147.782 429.581L127.636 464.414L143.917 474.076L137.54 479.728L116.621 467.65L140.777 425.765L147.782 429.581Z" fill="#262A5E"/>
<path d="M187.88 462.046L173.918 454.123L167.879 464.559L179.522 471.274L175.512 478.279L163.869 471.564L157.831 481.999L174.111 491.661L167.734 497.265L146.816 485.187L170.971 443.35L194.257 456.78L187.88 462.046Z" fill="#262A5E"/>
<path d="M283.971 512.097C283.971 512.097 291.314 474.704 289.816 471.177C289.099 469.473 287.734 468.124 286.021 467.426C284.309 466.729 282.39 466.74 280.685 467.457C278.981 468.175 277.632 469.54 276.934 471.252C276.237 472.964 276.248 474.884 276.966 476.588L268.221 477.264C267.361 473.738 267.819 470.019 269.509 466.807C271.2 463.595 274.006 461.111 277.4 459.824C281.135 458.229 285.351 458.183 289.12 459.696C292.889 461.209 295.902 464.157 297.498 467.892V467.892C299.181 471.905 299.634 476.327 298.802 480.598L295.324 497.893L308.078 492.772L311.363 500.454L283.971 512.097Z" fill="#262A5E"/>
<path d="M314.745 444.461C324.842 440.161 335.808 447.698 341.219 460.404C346.63 473.11 344.746 486.105 334.407 490.502C324.069 494.898 313.344 487.265 307.933 474.559C302.522 461.853 304.696 448.713 314.745 444.461ZM318.03 452.143C312.571 454.461 311.991 462.819 315.614 471.467C319.238 480.115 325.277 485.477 331.122 483.013C336.968 480.549 337.161 472.337 333.538 463.689C329.914 455.041 324.02 449.534 318.03 452.094V452.143Z" fill="#262A5E"/>
<path d="M356.969 480.888C356.969 480.888 364.312 443.495 362.814 439.968C362.097 438.264 360.732 436.915 359.019 436.217C357.307 435.52 355.388 435.531 353.683 436.248C351.979 436.966 350.63 438.331 349.932 440.043C349.235 441.756 349.246 443.675 349.964 445.379L341.219 446.055C340.359 442.529 340.817 438.81 342.507 435.598C344.198 432.386 347.004 429.902 350.398 428.615C354.133 427.02 358.349 426.974 362.118 428.487C365.887 430 368.9 432.948 370.496 436.683V436.683C372.179 440.696 372.632 445.118 371.8 449.389L368.515 466.926L381.172 461.515L384.409 469.196L356.969 480.888Z" fill="#262A5E"/>
<path d="M392.67 465.573C392.67 465.573 400.014 428.229 398.516 424.702C397.655 423.28 396.312 422.213 394.732 421.695C393.152 421.177 391.438 421.243 389.902 421.879C388.366 422.516 387.109 423.682 386.358 425.166C385.607 426.65 385.413 428.353 385.81 429.968L377.066 430.693C376.205 427.166 376.664 423.447 378.354 420.235C380.045 417.023 382.851 414.539 386.245 413.252C389.98 411.657 394.196 411.611 397.964 413.124C401.733 414.637 404.747 417.585 406.342 421.32C408.025 425.333 408.479 429.755 407.647 434.026L404.168 451.273L416.826 446.249L420.208 454.123L392.67 465.573Z" fill="#262A5E"/>
<path d="M181.874 192.382V245.755H174.799V192.382H181.874ZM204.235 216.393V222.184H180.335V216.393H204.235ZM207.865 192.382V198.174H180.335V192.382H207.865ZM244.742 232.265C244.742 231.019 244.547 229.919 244.156 228.966C243.789 227.989 243.129 227.109 242.176 226.327C241.248 225.545 239.952 224.799 238.291 224.091C236.653 223.382 234.576 222.661 232.059 221.928C229.419 221.146 227.037 220.278 224.911 219.325C222.784 218.348 220.964 217.236 219.448 215.989C217.933 214.743 216.772 213.313 215.966 211.7C215.16 210.087 214.756 208.242 214.756 206.165C214.756 204.088 215.184 202.169 216.039 200.41C216.895 198.65 218.117 197.123 219.705 195.827C221.318 194.508 223.236 193.481 225.46 192.748C227.684 192.015 230.165 191.648 232.902 191.648C236.91 191.648 240.307 192.418 243.093 193.958C245.903 195.473 248.042 197.465 249.508 199.933C250.974 202.377 251.707 204.992 251.707 207.778H244.669C244.669 205.774 244.241 204.002 243.386 202.463C242.531 200.898 241.235 199.677 239.5 198.797C237.765 197.893 235.566 197.44 232.902 197.44C230.385 197.44 228.307 197.819 226.67 198.577C225.033 199.334 223.811 200.361 223.004 201.656C222.222 202.951 221.831 204.43 221.831 206.092C221.831 207.216 222.063 208.242 222.528 209.171C223.017 210.075 223.762 210.918 224.764 211.7C225.79 212.482 227.086 213.203 228.65 213.863C230.238 214.523 232.132 215.158 234.332 215.769C237.362 216.625 239.977 217.578 242.176 218.629C244.376 219.68 246.184 220.865 247.602 222.184C249.044 223.48 250.107 224.958 250.791 226.62C251.5 228.257 251.854 230.115 251.854 232.192C251.854 234.367 251.414 236.334 250.534 238.094C249.655 239.854 248.396 241.357 246.759 242.603C245.121 243.849 243.154 244.815 240.857 245.499C238.584 246.159 236.042 246.489 233.232 246.489C230.764 246.489 228.332 246.146 225.937 245.462C223.566 244.778 221.404 243.751 219.448 242.383C217.518 241.014 215.966 239.328 214.793 237.324C213.644 235.296 213.07 232.95 213.07 230.286H220.108C220.108 232.119 220.463 233.695 221.171 235.015C221.88 236.31 222.845 237.385 224.067 238.241C225.314 239.096 226.719 239.731 228.283 240.147C229.872 240.538 231.521 240.733 233.232 240.733C235.7 240.733 237.79 240.391 239.5 239.707C241.211 239.023 242.506 238.045 243.386 236.774C244.29 235.503 244.742 234.001 244.742 232.265ZM293.094 228.783H300.132C299.766 232.155 298.801 235.174 297.236 237.837C295.672 240.501 293.461 242.615 290.601 244.179C287.742 245.719 284.174 246.489 279.897 246.489C276.769 246.489 273.922 245.902 271.356 244.729C268.814 243.556 266.627 241.894 264.794 239.744C262.961 237.569 261.544 234.966 260.542 231.935C259.564 228.881 259.076 225.484 259.076 221.745V216.429C259.076 212.69 259.564 209.305 260.542 206.275C261.544 203.22 262.974 200.605 264.831 198.43C266.713 196.255 268.973 194.581 271.613 193.408C274.252 192.235 277.221 191.648 280.52 191.648C284.553 191.648 287.962 192.406 290.748 193.921C293.534 195.436 295.697 197.538 297.236 200.226C298.801 202.89 299.766 205.982 300.132 209.501H293.094C292.752 207.008 292.117 204.87 291.188 203.086C290.259 201.277 288.94 199.884 287.229 198.907C285.518 197.929 283.282 197.44 280.52 197.44C278.15 197.44 276.06 197.893 274.252 198.797C272.468 199.701 270.965 200.984 269.743 202.646C268.546 204.308 267.641 206.299 267.03 208.621C266.419 210.943 266.114 213.521 266.114 216.356V221.745C266.114 224.359 266.383 226.816 266.92 229.113C267.483 231.41 268.326 233.426 269.45 235.161C270.574 236.896 272.004 238.265 273.739 239.267C275.474 240.245 277.527 240.733 279.897 240.733C282.903 240.733 285.298 240.257 287.082 239.304C288.866 238.351 290.21 236.982 291.115 235.198C292.043 233.414 292.703 231.276 293.094 228.783Z" fill="#B1435C"/>
<path d="M393.588 205.95C393.783 205.55 393.929 205.128 394.023 204.694C395.486 199.376 395.35 193.744 393.632 188.503C391.913 183.262 388.689 178.643 384.361 175.224C383.008 164.257 372.621 157.011 364.07 153.532C363.557 143.868 359.293 134.786 352.186 128.217C340.736 117.879 324.31 116.478 316.291 116.478C308.464 103.096 290.589 102.468 280.154 104.4C274.136 102.37 267.986 100.756 261.748 99.5689C260.935 99.3839 260.093 99.3638 259.273 99.5097C258.452 99.6557 257.669 99.9648 256.97 100.419C256.271 100.873 255.67 101.462 255.203 102.152C254.736 102.843 254.412 103.62 254.25 104.437C254.089 105.255 254.093 106.097 254.262 106.913C254.432 107.729 254.763 108.503 255.237 109.188C255.711 109.874 256.317 110.458 257.021 110.905C257.724 111.352 258.51 111.654 259.332 111.792C265.55 113.038 271.669 114.733 277.642 116.864C278.793 117.204 280.017 117.204 281.169 116.864C281.169 116.864 301.991 112.033 306.532 124.884C306.999 126.192 307.89 127.306 309.063 128.05C310.235 128.794 311.623 129.125 313.005 128.99C313.005 128.99 332.91 127.251 344.069 137.445C348.082 141.137 350.694 146.104 351.461 151.503C345.633 151.456 339.903 153.008 334.895 155.989C329.887 158.97 325.792 163.267 323.054 168.412C322.68 169.144 322.454 169.943 322.39 170.763C322.326 171.583 322.425 172.407 322.681 173.188C322.937 173.97 323.345 174.693 323.882 175.316C324.418 175.939 325.073 176.449 325.808 176.818C326.677 177.258 327.636 177.489 328.61 177.495C329.764 177.498 330.896 177.179 331.877 176.573C332.859 175.966 333.652 175.098 334.166 174.064C339.528 162.76 354.022 163.871 356.63 164.257C359.239 164.644 372.67 169.91 372.09 178.268C372.016 179.486 372.296 180.7 372.896 181.762C373.496 182.825 374.39 183.692 375.472 184.258C377.089 185.271 378.5 186.583 379.626 188.123C380.902 189.923 381.781 191.974 382.205 194.139C382.63 196.304 382.591 198.535 382.09 200.684L381.704 201.264C375.04 201.655 368.734 204.409 363.917 209.031C359.101 213.653 356.089 219.84 355.423 226.482C355.329 227.295 355.397 228.118 355.624 228.905C355.851 229.691 356.231 230.424 356.743 231.062C357.256 231.7 357.89 232.231 358.608 232.622C359.327 233.013 360.116 233.258 360.93 233.342H361.606C363.148 233.351 364.639 232.788 365.79 231.762C366.941 230.736 367.671 229.319 367.838 227.786C368.242 223.997 369.998 220.481 372.784 217.881C375.571 215.281 379.2 213.772 383.008 213.631C410.4 233.729 391.076 280.59 389.772 283.586C383.008 296.533 374.505 302.91 363.829 303.78C352.802 295.243 339.985 289.313 326.339 286.436C324.784 286.204 323.198 286.564 321.896 287.445C320.593 288.326 319.668 289.663 319.304 291.193C318.939 292.723 319.162 294.334 319.928 295.707C320.694 297.08 321.948 298.116 323.441 298.61C334.987 301.049 345.856 305.997 355.278 313.104C355.231 314.734 355.004 316.354 354.601 317.935C350.157 335.616 326.243 344.892 301.459 338.612C297.37 337.58 293.39 336.157 289.575 334.36C288.682 333.887 287.687 333.639 286.676 333.639C285.665 333.639 284.67 333.887 283.777 334.36C282.906 334.857 282.167 335.554 281.621 336.395C281.074 337.235 280.737 338.194 280.637 339.192C279.86 347.039 280.169 354.956 281.555 362.719L265.129 365.473C264.405 363.009 263.728 360.062 262.955 356.922C259.284 341.752 254.018 319.819 238.413 301.847C250.63 298.794 263.068 296.71 275.613 295.615C276.451 295.585 277.275 295.386 278.033 295.028C278.792 294.67 279.47 294.161 280.025 293.533C280.581 292.905 281.004 292.17 281.267 291.374C281.529 290.577 281.628 289.735 281.555 288.9C281.419 287.25 280.638 285.72 279.38 284.644C278.123 283.567 276.491 283.031 274.84 283.151C258.077 284.664 241.495 287.77 225.321 292.426C215.964 293.765 206.495 294.154 197.059 293.586C169.957 289.528 162.372 273.15 164.159 260.348C164.299 259.334 164.188 258.301 163.834 257.34C163.48 256.38 162.895 255.521 162.13 254.841C161.378 254.157 160.467 253.671 159.481 253.427C158.494 253.182 157.462 253.187 156.478 253.439L151.937 254.551C144.062 254.116 124.303 251.072 115.413 240.734C113.486 238.465 112.081 235.8 111.296 232.929C110.512 230.057 110.367 227.048 110.872 224.115C111.035 222.857 110.806 221.581 110.219 220.457C109.631 219.334 108.712 218.418 107.587 217.834C106.002 216.776 104.825 215.208 104.254 213.39C104.003 209.68 105.217 206.02 107.635 203.196C108.226 202.357 108.608 201.389 108.751 200.372C108.894 199.356 108.793 198.32 108.457 197.35C105.799 189.383 106.004 180.738 109.036 172.905C110.765 169.635 113.144 166.752 116.027 164.435C118.909 162.117 122.235 160.413 125.8 159.426C126.952 159.048 127.967 158.336 128.715 157.382C129.463 156.428 129.911 155.273 130.003 154.064C130.562 149.265 132.929 144.859 136.622 141.744C139.156 140.192 141.987 139.187 144.932 138.796C147.878 138.405 150.873 138.636 153.724 139.474C154.553 139.65 155.409 139.655 156.239 139.488C157.07 139.322 157.858 138.989 158.555 138.508C159.247 138.026 159.834 137.409 160.282 136.695C160.73 135.982 161.03 135.185 161.164 134.353C161.164 134.353 163.966 121.212 188.363 120.729C192.083 125.802 200.248 139.087 194.16 150.972C193.395 152.446 193.246 154.163 193.743 155.748C194.241 157.332 195.347 158.655 196.818 159.426C197.691 159.855 198.647 160.086 199.62 160.103C200.779 160.104 201.917 159.784 202.906 159.179C203.895 158.573 204.697 157.706 205.224 156.673C207.307 152.591 208.493 148.11 208.702 143.532C212.686 141.583 217.194 140.973 221.553 141.793C222.988 142.281 224.3 143.074 225.401 144.116C226.501 145.158 227.364 146.425 227.93 147.832C228.451 148.887 229.256 149.776 230.254 150.399C231.253 151.022 232.405 151.354 233.582 151.358C234.521 151.364 235.447 151.149 236.288 150.73C237.029 150.374 237.692 149.875 238.24 149.261C238.787 148.648 239.208 147.932 239.477 147.155C239.746 146.378 239.859 145.555 239.81 144.735C239.76 143.914 239.548 143.111 239.186 142.372C237.853 139.403 235.907 136.749 233.476 134.584C231.045 132.419 228.183 130.793 225.079 129.812C219.13 128.296 212.86 128.633 207.108 130.778C205.609 125.83 203.431 121.115 200.634 116.768C204.476 115.131 208.432 113.775 212.47 112.71C214.072 112.287 215.44 111.245 216.273 109.813C217.107 108.382 217.338 106.678 216.915 105.076C216.492 103.475 215.45 102.107 214.019 101.273C212.587 100.44 210.883 100.209 209.282 100.632C202.489 102.349 195.934 104.897 189.764 108.217C164.449 108.217 154.69 119.28 151.115 126.43C143.397 125.371 135.566 127.307 129.23 131.841C123.814 136.147 120.044 142.186 118.554 148.943C109.57 152.287 102.207 158.942 97.9732 167.543C93.7722 177.311 93.0559 188.227 95.9442 198.462C94.1544 201.011 92.8944 203.894 92.2388 206.94C91.5832 209.985 91.5454 213.131 92.1276 216.192C92.9893 220.079 95.0309 223.606 97.9732 226.289C97.5395 234.525 100.31 242.61 105.703 248.85C119.182 264.551 146.043 266.725 151.309 267.015C152.71 284.455 165.802 301.654 195.175 306.002H195.465C195.755 306.002 198.992 306.34 204.451 306.34C211.087 306.331 217.718 305.928 224.306 305.132C241.554 321.413 246.916 343.781 250.878 359.869C251.941 364.97 253.361 369.991 255.129 374.893C255.6 376.042 256.404 377.023 257.437 377.712C258.47 378.4 259.685 378.765 260.926 378.758C261.263 378.806 261.604 378.806 261.941 378.758L290.251 373.927C291.108 373.761 291.921 373.417 292.638 372.918C293.355 372.42 293.96 371.777 294.415 371.032C294.87 370.286 295.164 369.454 295.279 368.588C295.393 367.723 295.327 366.842 295.082 366.004C293.517 360.5 292.672 354.817 292.57 349.095C294.406 349.723 296.29 350.255 298.174 350.738C312.372 354.555 327.418 353.742 341.122 348.419C347.245 346.208 352.752 342.57 357.188 337.806C361.624 333.043 364.861 327.291 366.631 321.027C367.065 319.347 367.356 317.634 367.5 315.906C378.177 314.408 391.028 308.079 400.883 289.093V288.755C405.4 278.336 408.394 267.32 409.772 256.048C411.995 234.308 406.487 217.11 393.588 205.95Z" fill="#262A5E"/>
<path d="M244.5 448.133L53.817 338.08V117.879L244.5 7.82634L435.184 117.879V338.08L244.5 448.133Z" stroke="#9DCBEF" stroke-width="13.5271" stroke-miterlimit="10" stroke-linecap="round"/>
<path d="M220.2 444.993L50.8701 304.311L88.0212 87.2979L294.551 10.9665L463.881 151.648L426.73 368.661L220.2 444.993Z" stroke="#262A5E" stroke-width="13.5271" stroke-miterlimit="10" stroke-linecap="round"/>
</g>
<defs>
<clipPath id="clip0_4_2">
<rect width="431.224" height="512" fill="white" transform="translate(40)"/>
</clipPath>
</defs>
</svg>
