<svg width="72" height="72" viewBox="0 0 72 72" fill="none" xmlns="http://www.w3.org/2000/svg">
<path d="M36 64.8002C51.9058 64.8002 64.7999 51.906 64.7999 36.0002C64.7999 20.0944 51.9058 7.2002 36 7.2002C20.0942 7.2002 7.19995 20.0944 7.19995 36.0002C7.19995 51.906 20.0942 64.8002 36 64.8002Z" fill="url(#paint0_radial_446_275)"/>
<path opacity="0.5" d="M36 64.8002C51.9058 64.8002 64.7999 51.906 64.7999 36.0002C64.7999 20.0944 51.9058 7.2002 36 7.2002C20.0942 7.2002 7.19995 20.0944 7.19995 36.0002C7.19995 51.906 20.0942 64.8002 36 64.8002Z" fill="url(#paint1_radial_446_275)"/>
<path opacity="0.5" d="M36 64.8002C51.9058 64.8002 64.7999 51.906 64.7999 36.0002C64.7999 20.0944 51.9058 7.2002 36 7.2002C20.0942 7.2002 7.19995 20.0944 7.19995 36.0002C7.19995 51.906 20.0942 64.8002 36 64.8002Z" fill="url(#paint2_radial_446_275)"/>
<path opacity="0.5" d="M36 64.8002C51.9058 64.8002 64.7999 51.906 64.7999 36.0002C64.7999 20.0944 51.9058 7.2002 36 7.2002C20.0942 7.2002 7.19995 20.0944 7.19995 36.0002C7.19995 51.906 20.0942 64.8002 36 64.8002Z" fill="url(#paint3_radial_446_275)"/>
<path d="M45.8992 21.627C46.1671 20.5018 47.5335 20.0865 49.6365 20.5687C51.4181 20.984 55.0884 22.8593 56.9772 26.9449C57.3255 27.6951 56.4816 27.8692 56.0931 27.3468C54.767 25.5652 50.7617 22.7254 47.212 22.2967C45.7787 22.1226 45.8992 21.627 45.8992 21.627Z" fill="url(#paint4_linear_446_275)"/>
<path d="M48.6587 28.2039C48.6587 28.2039 53.2935 29.4898 53.99 33.2941C54.0302 33.5352 54.0436 33.7763 53.99 34.0175C53.9097 34.4997 53.3739 34.9283 52.6237 34.3122C47.9353 30.5614 44.7071 31.392 42.3227 31.9412C41.385 32.1555 40.7822 31.1374 41.1707 30.4141C41.2913 30.1998 41.3716 29.9721 41.5324 29.7979C44.0239 26.8911 48.6587 28.2039 48.6587 28.2039Z" fill="url(#paint5_radial_446_275)"/>
<path d="M48.364 29.3157C48.364 29.3157 52.1415 30.3605 54.0168 33.7227C54.0168 33.5754 54.0168 33.4414 53.99 33.2941C53.2935 29.4898 48.6587 28.2039 48.6587 28.2039C48.6587 28.2039 44.0239 26.8911 41.5324 29.7979C41.4386 29.9051 41.3582 30.0256 41.2913 30.1462C44.5865 28.244 48.364 29.3157 48.364 29.3157Z" fill="url(#paint6_linear_446_275)"/>
<path d="M26.1008 21.627C25.8329 20.5018 24.4666 20.0865 22.3635 20.5687C20.5819 20.984 16.9116 22.8593 15.0229 26.9449C14.6746 27.6951 15.5185 27.8692 15.907 27.3468C17.2331 25.5652 21.2383 22.7254 24.7881 22.2967C26.2214 22.1226 26.1008 21.627 26.1008 21.627Z" fill="url(#paint7_linear_446_275)"/>
<path d="M23.3413 28.2039C23.3413 28.2039 18.7065 29.4898 18.0099 33.2941C17.9698 33.5352 17.9564 33.7763 18.0099 34.0174C18.0903 34.4997 18.6261 34.9283 19.3763 34.3121C24.0646 30.5614 27.2929 31.392 29.6773 31.9412C30.615 32.1555 31.2178 31.1374 30.8293 30.4141C30.7087 30.1998 30.6284 29.9721 30.4676 29.7979C27.9761 26.8911 23.3413 28.2039 23.3413 28.2039Z" fill="url(#paint8_radial_446_275)"/>
<path d="M23.6365 29.3157C23.6365 29.3157 19.859 30.3605 17.9836 33.7227C17.9836 33.5754 17.9836 33.4414 18.0104 33.2941C18.707 29.4898 23.3418 28.2039 23.3418 28.2039C23.3418 28.2039 27.9766 26.8911 30.4681 29.7979C30.5619 29.9051 30.6422 30.0256 30.7092 30.1462C27.414 28.244 23.6365 29.3157 23.6365 29.3157Z" fill="url(#paint9_linear_446_275)"/>
<path d="M48.7256 44.4259C48.4844 44.3857 48.2433 44.4526 48.0692 44.6268C44.9749 47.5336 40.2061 49.0874 36.6162 49.0874H36H35.3838C31.7938 49.0874 27.0117 47.5336 23.9308 44.6268C23.7566 44.466 23.5155 44.3857 23.2744 44.4259C23.0333 44.466 22.8993 44.7473 23.0199 44.9751C25.6588 49.5429 30.5481 52.3827 35.8526 52.3827H36.0134H36.1741C41.4787 52.3827 46.368 49.5563 49.0069 44.9751C49.114 44.7473 48.9801 44.4794 48.7256 44.4259Z" fill="#643800"/>
<path d="M48.7256 44.4259C48.4844 44.3857 48.2433 44.4526 48.0692 44.6268C44.9749 47.5336 40.2061 49.0874 36.6162 49.0874H36H35.3838C31.7938 49.0874 27.0117 47.5336 23.9308 44.6268C23.7566 44.466 23.5155 44.3857 23.2744 44.4259C23.0333 44.466 22.8993 44.7473 23.0199 44.9751C23.0467 45.0152 23.0735 45.0688 23.1002 45.109C23.3548 44.9617 23.6093 44.8277 23.8906 45.1358C26.8242 48.4311 31.1776 50.4002 35.8392 50.4002H36H36.1607C40.8491 50.4002 45.2294 48.4043 48.163 45.0688C48.4309 44.7607 48.6854 44.9081 48.9265 45.0688C48.9399 45.042 48.9667 45.0019 48.9801 44.9751C49.114 44.7473 48.9801 44.4794 48.7256 44.4259Z" fill="url(#paint10_linear_446_275)"/>
<defs>
<radialGradient id="paint0_radial_446_275" cx="0" cy="0" r="1" gradientUnits="userSpaceOnUse" gradientTransform="translate(30.3335 24.3285) scale(34.7435)">
<stop stop-color="#FFDF30"/>
<stop offset="1" stop-color="#FFB82E"/>
</radialGradient>
<radialGradient id="paint1_radial_446_275" cx="0" cy="0" r="1" gradientUnits="userSpaceOnUse" gradientTransform="translate(30.3335 24.3285) scale(27.3342)">
<stop stop-color="#FFE95F"/>
<stop offset="1" stop-color="#FFBB47" stop-opacity="0"/>
</radialGradient>
<radialGradient id="paint2_radial_446_275" cx="0" cy="0" r="1" gradientUnits="userSpaceOnUse" gradientTransform="translate(20.3095 43.1648) rotate(-2.7703) scale(12.114 9.58518)">
<stop stop-color="#FF4C00"/>
<stop offset="0.1542" stop-color="#FF4C00"/>
<stop offset="0.1795" stop-color="#FF4C00"/>
<stop offset="0.3996" stop-color="#FA4C0B" stop-opacity="0.7318"/>
<stop offset="0.7799" stop-color="#EE4B27" stop-opacity="0.2683"/>
<stop offset="1" stop-color="#E64A3A" stop-opacity="0"/>
</radialGradient>
<radialGradient id="paint3_radial_446_275" cx="0" cy="0" r="1" gradientUnits="userSpaceOnUse" gradientTransform="translate(51.6755 43.1648) rotate(-177.23) scale(12.114 9.58518)">
<stop stop-color="#FF4C00"/>
<stop offset="0.1542" stop-color="#FF4C00"/>
<stop offset="0.1795" stop-color="#FF4C00"/>
<stop offset="0.3996" stop-color="#FA4C0B" stop-opacity="0.7318"/>
<stop offset="0.7799" stop-color="#EE4B27" stop-opacity="0.2683"/>
<stop offset="1" stop-color="#E64A3A" stop-opacity="0"/>
</radialGradient>
<linearGradient id="paint4_linear_446_275" x1="51.373" y1="24.8814" x2="52.0598" y2="21.9254" gradientUnits="userSpaceOnUse">
<stop offset="0.00132565" stop-color="#3C2200"/>
<stop offset="1" stop-color="#7A4400"/>
</linearGradient>
<radialGradient id="paint5_radial_446_275" cx="0" cy="0" r="1" gradientUnits="userSpaceOnUse" gradientTransform="translate(47.9378 30.8327) rotate(15.68) scale(5.17593 2.49697)">
<stop offset="0.00132565" stop-color="#7A4400"/>
<stop offset="1" stop-color="#643800"/>
</radialGradient>
<linearGradient id="paint6_linear_446_275" x1="49.0768" y1="26.7527" x2="48.1912" y2="29.9774" gradientUnits="userSpaceOnUse">
<stop offset="0.00132565" stop-color="#3C2200"/>
<stop offset="1" stop-color="#512D00"/>
</linearGradient>
<linearGradient id="paint7_linear_446_275" x1="20.6263" y1="24.8679" x2="19.9395" y2="21.9118" gradientUnits="userSpaceOnUse">
<stop offset="0.00132565" stop-color="#3C2200"/>
<stop offset="1" stop-color="#7A4400"/>
</linearGradient>
<radialGradient id="paint8_radial_446_275" cx="0" cy="0" r="1" gradientUnits="userSpaceOnUse" gradientTransform="translate(24.0434 30.8441) rotate(164.32) scale(5.17594 2.49697)">
<stop offset="0.00132565" stop-color="#7A4400"/>
<stop offset="1" stop-color="#643800"/>
</radialGradient>
<linearGradient id="paint9_linear_446_275" x1="22.9075" y1="26.7382" x2="23.793" y2="29.963" gradientUnits="userSpaceOnUse">
<stop offset="0.00132565" stop-color="#3C2200"/>
<stop offset="1" stop-color="#512D00"/>
</linearGradient>
<linearGradient id="paint10_linear_446_275" x1="36" y1="46.4599" x2="36" y2="50.7594" gradientUnits="userSpaceOnUse">
<stop offset="0.00132565" stop-color="#3C2200"/>
<stop offset="1" stop-color="#512D00"/>
</linearGradient>
</defs>
</svg>
