<svg width="72" height="72" viewBox="0 0 72 72" fill="none" xmlns="http://www.w3.org/2000/svg">
<path d="M35.9999 64.8002C51.9057 64.8002 64.7999 51.906 64.7999 36.0002C64.7999 20.0944 51.9057 7.2002 35.9999 7.2002C20.0941 7.2002 7.19995 20.0944 7.19995 36.0002C7.19995 51.906 20.0941 64.8002 35.9999 64.8002Z" fill="url(#paint0_radial_446_1411)"/>
<path opacity="0.5" d="M35.9999 64.8002C51.9057 64.8002 64.7999 51.906 64.7999 36.0002C64.7999 20.0944 51.9057 7.2002 35.9999 7.2002C20.0941 7.2002 7.19995 20.0944 7.19995 36.0002C7.19995 51.906 20.0941 64.8002 35.9999 64.8002Z" fill="url(#paint1_radial_446_1411)"/>
<path d="M35.9999 64.8002C51.9057 64.8002 64.7999 51.906 64.7999 36.0002C64.7999 20.0944 51.9057 7.2002 35.9999 7.2002C20.0941 7.2002 7.19995 20.0944 7.19995 36.0002C7.19995 51.906 20.0941 64.8002 35.9999 64.8002Z" fill="url(#paint2_radial_446_1411)"/>
<path d="M35.9999 64.8002C51.9057 64.8002 64.7999 51.906 64.7999 36.0002C64.7999 20.0944 51.9057 7.2002 35.9999 7.2002C20.0941 7.2002 7.19995 20.0944 7.19995 36.0002C7.19995 51.906 20.0941 64.8002 35.9999 64.8002Z" fill="url(#paint3_radial_446_1411)"/>
<path d="M55.8538 45.5762C55.8718 45.4142 55.8898 45.2522 55.9078 45.1082C55.8718 44.5862 55.5478 44.1002 55.0258 43.9202C54.7558 43.8122 54.4678 43.8122 54.1798 43.8842C48.2938 45.5222 42.1738 46.3682 35.9998 46.3682C29.8258 46.3682 23.7058 45.5402 17.8198 43.8842C17.5498 43.8122 17.2438 43.8122 16.9738 43.9202C16.4698 44.1182 16.1458 44.5682 16.0918 45.0902C16.1098 45.2702 16.1278 45.4502 16.1638 45.6482L16.4878 46.9982C16.5598 47.2502 16.6498 47.5202 16.7578 47.8082C18.7738 52.5242 24.0298 60.8222 36.0178 60.8222C47.9878 60.8222 53.2438 52.5062 55.2778 47.7902C55.3678 47.5382 55.4578 47.3042 55.5118 47.0702L55.8538 45.5762Z" fill="url(#paint4_radial_446_1411)"/>
<path d="M35.9999 59.5085C40.6439 59.5085 44.2079 58.1765 46.9259 56.2865C43.9379 54.9005 40.3379 54.0005 35.9999 54.0005C31.6619 54.0005 28.0439 54.9005 25.0559 56.3045C27.7919 58.1945 31.3559 59.5085 35.9999 59.5085Z" fill="url(#paint5_radial_446_1411)"/>
<path d="M55.512 47.0162L55.836 45.6302C55.872 45.4322 55.89 45.2522 55.89 45.0902C55.854 44.5682 55.512 44.1182 55.008 43.9202C54.738 43.8122 54.45 43.8122 54.162 43.8842C48.276 45.5222 42.156 46.3682 35.982 46.3682C29.808 46.3682 23.688 45.5402 17.802 43.8842C17.532 43.8122 17.226 43.8122 16.956 43.9202C16.452 44.1182 16.128 44.5682 16.074 45.0902C16.092 45.2522 16.11 45.4502 16.128 45.6482L16.452 47.0162C16.524 47.2682 16.614 47.5382 16.722 47.8082C17.532 49.7162 18.882 52.2002 20.97 54.4862C19.008 52.1462 21.42 50.8682 25.758 51.3902C30.078 51.9122 35.982 51.9302 35.982 51.9302C35.982 51.9302 41.886 51.9122 46.206 51.3902C50.526 50.8682 52.956 52.1642 50.994 54.4862C53.1 52.2002 54.432 49.7162 55.242 47.8082C55.35 47.5202 55.44 47.2682 55.512 47.0162Z" fill="url(#paint6_linear_446_1411)"/>
<path d="M36 47.6822C29.772 47.6822 23.616 46.8542 17.658 45.1982L17.73 46.0082C17.874 47.5562 19.008 48.8342 20.52 49.1762C25.578 50.2922 30.762 50.8502 35.982 50.8502C41.616 50.8502 47.196 50.2022 52.632 48.9062C53.442 48.7082 54.036 48.0242 54.126 47.1962L54.324 45.2162C48.384 46.8542 42.228 47.6822 36 47.6822Z" fill="url(#paint7_radial_446_1411)"/>
<path d="M24.4082 19.3503C22.4642 20.2323 21.1862 21.9963 20.8262 23.9403C19.1162 22.9143 16.9562 22.6983 15.0122 23.5803C11.8622 25.0023 10.4762 28.7103 11.8982 31.8423C15.0302 38.7723 28.2422 40.3203 28.2422 40.3203C28.2422 40.3203 35.8022 29.3943 32.6702 22.4463C31.2662 19.3323 27.5582 17.9283 24.4082 19.3503Z" fill="url(#paint8_radial_446_1411)"/>
<path opacity="0.5" d="M27.0002 18.792C32.3642 22.356 32.4362 30.168 29.8262 33.57C26.9462 37.332 23.9042 37.548 17.1362 36.918C22.0502 39.6 28.2422 40.32 28.2422 40.32C28.2422 40.32 35.8022 29.394 32.6702 22.446C31.6442 20.178 29.3762 18.81 27.0002 18.792Z" fill="url(#paint9_radial_446_1411)"/>
<path opacity="0.5" d="M24.4082 19.3503C22.4642 20.2323 21.1862 21.9963 20.8262 23.9403C19.1162 22.9143 16.9562 22.6983 15.0122 23.5803C11.8622 25.0023 10.4762 28.7103 11.8982 31.8423C15.0302 38.7723 28.2422 40.3203 28.2422 40.3203C28.2422 40.3203 35.8022 29.3943 32.6702 22.4463C31.2662 19.3323 27.5582 17.9283 24.4082 19.3503Z" fill="url(#paint10_radial_446_1411)"/>
<path opacity="0.5" d="M24.4082 19.3503C22.4642 20.2323 21.1862 21.9963 20.8262 23.9403C19.1162 22.9143 16.9562 22.6983 15.0122 23.5803C11.8622 25.0023 10.4762 28.7103 11.8982 31.8423C15.0302 38.7723 28.2422 40.3203 28.2422 40.3203C28.2422 40.3203 35.8022 29.3943 32.6702 22.4463C31.2662 19.3323 27.5582 17.9283 24.4082 19.3503Z" fill="url(#paint11_radial_446_1411)"/>
<path opacity="0.24" d="M19.3501 24.4258C20.5201 25.5058 20.0881 27.8998 18.3601 29.7718C16.6321 31.6438 14.2921 32.2738 13.1041 31.1938C11.9341 30.1138 12.3661 27.7198 14.0941 25.8478C15.8221 23.9758 18.1621 23.3458 19.3501 24.4258Z" fill="url(#paint12_radial_446_1411)"/>
<path opacity="0.24" d="M25.8122 20.1964C27.0182 20.7184 27.3242 22.7164 26.4782 24.6604C25.6322 26.5864 23.9762 27.7204 22.7522 27.1984C21.5282 26.6764 21.2402 24.6784 22.0862 22.7344C22.9322 20.8084 24.5882 19.6744 25.8122 20.1964Z" fill="url(#paint13_radial_446_1411)"/>
<path opacity="0.32" d="M25.2002 20.8259C28.4942 20.5019 33.1382 23.4899 30.9062 30.8339C29.5742 35.2259 27.2882 38.1779 23.1662 39.2939C26.0282 40.0859 28.2602 40.3559 28.2602 40.3559C28.2602 40.3559 35.8202 29.4299 32.6882 22.4819C31.2662 19.3319 27.5582 17.9459 24.4262 19.3679C22.4822 20.2499 21.2042 22.0139 20.8442 23.9579C20.8442 23.9579 22.7882 21.0599 25.2002 20.8259Z" fill="url(#paint14_linear_446_1411)"/>
<path d="M57.4203 23.5625C55.4763 22.6805 53.2983 22.8965 51.6063 23.9405C51.2463 21.9785 49.9683 20.2325 48.0243 19.3505C44.8743 17.9465 41.1843 19.3505 39.7623 22.5005C36.6483 29.4306 44.2623 40.3386 44.2623 40.3386C44.2623 40.3386 57.4563 38.7546 60.5703 31.8066C61.9743 28.6746 60.5703 24.9665 57.4203 23.5625Z" fill="url(#paint15_radial_446_1411)"/>
<path opacity="0.5" d="M59.5622 25.1284C60.4622 31.5004 54.6482 36.7384 50.3642 37.0444C45.6302 37.3864 43.4702 35.2444 39.4382 29.7724C40.6802 35.2264 44.2442 40.3564 44.2442 40.3564C44.2442 40.3564 57.4382 38.7724 60.5522 31.8244C61.5962 29.5024 61.1282 26.9104 59.5622 25.1284Z" fill="url(#paint16_radial_446_1411)"/>
<path opacity="0.5" d="M57.4203 23.5625C55.4763 22.6805 53.2983 22.8965 51.6063 23.9405C51.2463 21.9785 49.9683 20.2325 48.0243 19.3505C44.8743 17.9465 41.1843 19.3505 39.7623 22.5005C36.6483 29.4306 44.2623 40.3386 44.2623 40.3386C44.2623 40.3386 57.4563 38.7546 60.5703 31.8066C61.9743 28.6746 60.5703 24.9665 57.4203 23.5625Z" fill="url(#paint17_radial_446_1411)"/>
<path opacity="0.5" d="M57.4203 23.5625C55.4763 22.6805 53.2983 22.8965 51.6063 23.9405C51.2463 21.9785 49.9683 20.2325 48.0243 19.3505C44.8743 17.9465 41.1843 19.3505 39.7623 22.5005C36.6483 29.4306 44.2623 40.3386 44.2623 40.3386C44.2623 40.3386 57.4563 38.7546 60.5703 31.8066C61.9743 28.6746 60.5703 24.9665 57.4203 23.5625Z" fill="url(#paint18_radial_446_1411)"/>
<path opacity="0.24" d="M50.2564 23.1308C50.2204 24.7328 48.1324 25.9928 45.5944 25.9388C43.0564 25.8848 41.0224 24.5528 41.0404 22.9508C41.0764 21.3488 43.1644 20.0888 45.7024 20.1428C48.2584 20.1968 50.2924 21.5288 50.2564 23.1308Z" fill="url(#paint19_radial_446_1411)"/>
<path opacity="0.24" d="M57.7263 25.1647C58.1403 26.4247 56.8443 27.9727 54.8463 28.6207C52.8483 29.2687 50.8863 28.7827 50.4723 27.5227C50.0583 26.2627 51.3543 24.7147 53.3523 24.0667C55.3503 23.4007 57.3123 23.9047 57.7263 25.1647Z" fill="url(#paint20_radial_446_1411)"/>
<path opacity="0.32" d="M56.8444 25.11C59.2744 27.36 60.1024 32.814 53.1364 36.018C48.9604 37.926 45.2344 38.178 41.6704 35.838C42.9664 38.502 44.2624 40.356 44.2624 40.356C44.2624 40.356 57.4564 38.772 60.5704 31.824C61.9744 28.674 60.5704 24.984 57.4204 23.562C55.4764 22.68 53.2984 22.896 51.6064 23.94C51.6064 23.922 55.0804 23.472 56.8444 25.11Z" fill="url(#paint21_linear_446_1411)"/>
<defs>
<radialGradient id="paint0_radial_446_1411" cx="0" cy="0" r="1" gradientUnits="userSpaceOnUse" gradientTransform="translate(30.3335 24.3285) scale(34.7435)">
<stop stop-color="#FFE030"/>
<stop offset="1" stop-color="#FFB92E"/>
</radialGradient>
<radialGradient id="paint1_radial_446_1411" cx="0" cy="0" r="1" gradientUnits="userSpaceOnUse" gradientTransform="translate(30.3335 24.3285) scale(27.3342)">
<stop stop-color="#FFEA5F"/>
<stop offset="1" stop-color="#FFBC47" stop-opacity="0"/>
</radialGradient>
<radialGradient id="paint2_radial_446_1411" cx="0" cy="0" r="1" gradientUnits="userSpaceOnUse" gradientTransform="translate(20.012 36.2529) rotate(32.7366) scale(15.2484 11.1297)">
<stop stop-color="#EB672A" stop-opacity="0.5"/>
<stop offset="0.4286" stop-color="#DC641B" stop-opacity="0.2846"/>
<stop offset="0.995" stop-color="#C25E00" stop-opacity="0"/>
</radialGradient>
<radialGradient id="paint3_radial_446_1411" cx="0" cy="0" r="1" gradientUnits="userSpaceOnUse" gradientTransform="translate(52.0048 36.2294) rotate(147.263) scale(15.2484 11.1297)">
<stop stop-color="#EB672A" stop-opacity="0.5"/>
<stop offset="0.4286" stop-color="#DC641B" stop-opacity="0.2846"/>
<stop offset="0.995" stop-color="#C25E00" stop-opacity="0"/>
</radialGradient>
<radialGradient id="paint4_radial_446_1411" cx="0" cy="0" r="1" gradientUnits="userSpaceOnUse" gradientTransform="translate(35.9969 52.3315) scale(15.3027)">
<stop offset="0.00132565" stop-color="#7A4400"/>
<stop offset="1" stop-color="#643800"/>
</radialGradient>
<radialGradient id="paint5_radial_446_1411" cx="0" cy="0" r="1" gradientUnits="userSpaceOnUse" gradientTransform="translate(36.219 57.4199) scale(12.1753 3.68133)">
<stop offset="0.2479" stop-color="#FF0000"/>
<stop offset="1" stop-color="#C20000"/>
</radialGradient>
<linearGradient id="paint6_linear_446_1411" x1="55.6824" y1="49.1661" x2="16.5569" y2="49.1661" gradientUnits="userSpaceOnUse">
<stop offset="0.00132565" stop-color="#3C2200"/>
<stop offset="0.5" stop-color="#512D00"/>
<stop offset="1" stop-color="#3C2200"/>
</linearGradient>
<radialGradient id="paint7_radial_446_1411" cx="0" cy="0" r="1" gradientUnits="userSpaceOnUse" gradientTransform="translate(35.9983 48.0227) scale(33.5633)">
<stop offset="0.00132565" stop-color="white"/>
<stop offset="1" stop-color="#A9BCBE"/>
</radialGradient>
<radialGradient id="paint8_radial_446_1411" cx="0" cy="0" r="1" gradientUnits="userSpaceOnUse" gradientTransform="translate(19.1384 28.0478) rotate(-53.7393) scale(17.8371 14.1474)">
<stop offset="0.2479" stop-color="#FF0000"/>
<stop offset="0.8639" stop-color="#C20000"/>
</radialGradient>
<radialGradient id="paint9_radial_446_1411" cx="0" cy="0" r="1" gradientUnits="userSpaceOnUse" gradientTransform="translate(19.0896 26.8688) rotate(-53.7394) scale(15.3571 12.1805)">
<stop offset="0.2479" stop-color="#FF0000"/>
<stop offset="1" stop-color="#C20000"/>
</radialGradient>
<radialGradient id="paint10_radial_446_1411" cx="0" cy="0" r="1" gradientUnits="userSpaceOnUse" gradientTransform="translate(19.1384 28.0478) rotate(-53.7393) scale(17.8371 14.1474)">
<stop stop-color="white" stop-opacity="0.25"/>
<stop offset="1" stop-color="white" stop-opacity="0"/>
</radialGradient>
<radialGradient id="paint11_radial_446_1411" cx="0" cy="0" r="1" gradientUnits="userSpaceOnUse" gradientTransform="translate(27.4669 30.9607) rotate(-50.6229) scale(13.0196 6.43262)">
<stop stop-color="#BD2719" stop-opacity="0.25"/>
<stop offset="1" stop-color="#BD2719" stop-opacity="0"/>
</radialGradient>
<radialGradient id="paint12_radial_446_1411" cx="0" cy="0" r="1" gradientUnits="userSpaceOnUse" gradientTransform="translate(16.2251 27.838) rotate(-46.0208) scale(4.62821 2.87503)">
<stop stop-color="white"/>
<stop offset="1" stop-color="white" stop-opacity="0"/>
</radialGradient>
<radialGradient id="paint13_radial_446_1411" cx="0" cy="0" r="1" gradientUnits="userSpaceOnUse" gradientTransform="translate(24.2808 23.7179) rotate(-65.0908) scale(3.83188 2.38047)">
<stop stop-color="white"/>
<stop offset="1" stop-color="white" stop-opacity="0"/>
</radialGradient>
<linearGradient id="paint14_linear_446_1411" x1="33.7521" y1="46.7827" x2="23.4959" y2="18.7392" gradientUnits="userSpaceOnUse">
<stop stop-color="#860805"/>
<stop offset="1" stop-color="#BD2719" stop-opacity="0"/>
</linearGradient>
<radialGradient id="paint15_radial_446_1411" cx="0" cy="0" r="1" gradientUnits="userSpaceOnUse" gradientTransform="translate(47.3718 25.3706) rotate(-5.26571) scale(17.837 14.1477)">
<stop offset="0.2479" stop-color="#FF0000"/>
<stop offset="0.8639" stop-color="#C20000"/>
</radialGradient>
<radialGradient id="paint16_radial_446_1411" cx="0" cy="0" r="1" gradientUnits="userSpaceOnUse" gradientTransform="translate(48.2219 24.5526) rotate(-5.26571) scale(15.357 12.1807)">
<stop offset="0.2479" stop-color="#FF0000"/>
<stop offset="1" stop-color="#C20000"/>
</radialGradient>
<radialGradient id="paint17_radial_446_1411" cx="0" cy="0" r="1" gradientUnits="userSpaceOnUse" gradientTransform="translate(47.3718 25.3706) rotate(-5.26571) scale(17.837 14.1477)">
<stop stop-color="white" stop-opacity="0.25"/>
<stop offset="1" stop-color="white" stop-opacity="0"/>
</radialGradient>
<radialGradient id="paint18_radial_446_1411" cx="0" cy="0" r="1" gradientUnits="userSpaceOnUse" gradientTransform="translate(50.7461 33.5157) rotate(-2.1516) scale(13.0199 6.43271)">
<stop stop-color="#BD2719" stop-opacity="0.25"/>
<stop offset="1" stop-color="#BD2719" stop-opacity="0"/>
</radialGradient>
<radialGradient id="paint19_radial_446_1411" cx="0" cy="0" r="1" gradientUnits="userSpaceOnUse" gradientTransform="translate(45.6578 23.0622) rotate(2.44968) scale(4.62829 2.87534)">
<stop stop-color="white"/>
<stop offset="1" stop-color="white" stop-opacity="0"/>
</radialGradient>
<radialGradient id="paint20_radial_446_1411" cx="0" cy="0" r="1" gradientUnits="userSpaceOnUse" gradientTransform="translate(54.1236 26.3296) rotate(-16.6196) scale(3.832 2.3805)">
<stop stop-color="white"/>
<stop offset="1" stop-color="white" stop-opacity="0"/>
</radialGradient>
<linearGradient id="paint21_linear_446_1411" x1="43.0905" y1="48.729" x2="57.2848" y2="22.4599" gradientUnits="userSpaceOnUse">
<stop stop-color="#860805"/>
<stop offset="1" stop-color="#BD2719" stop-opacity="0"/>
</linearGradient>
</defs>
</svg>
