<svg width="72" height="72" viewBox="0 0 72 72" fill="none" xmlns="http://www.w3.org/2000/svg">
<path d="M36 64.8002C51.9058 64.8002 64.7999 51.906 64.7999 36.0002C64.7999 20.0944 51.9058 7.2002 36 7.2002C20.0942 7.2002 7.19995 20.0944 7.19995 36.0002C7.19995 51.906 20.0942 64.8002 36 64.8002Z" fill="url(#paint0_radial_446_298)"/>
<path opacity="0.5" d="M36 64.8002C51.9058 64.8002 64.7999 51.906 64.7999 36.0002C64.7999 20.0944 51.9058 7.2002 36 7.2002C20.0942 7.2002 7.19995 20.0944 7.19995 36.0002C7.19995 51.906 20.0942 64.8002 36 64.8002Z" fill="url(#paint1_radial_446_298)"/>
<path d="M55.4499 40.8758C55.2356 40.7955 54.9944 40.7821 54.7801 40.849C48.6986 42.5904 42.3894 43.4611 36.0132 43.4611C29.637 43.4611 23.3144 42.577 17.2463 40.849C17.0186 40.7821 16.7909 40.7955 16.5766 40.8758C15.9202 41.1437 14.8754 42.135 16.2551 45.9259V45.9393C18.2912 50.7884 23.6895 59.3078 35.9998 59.3078C48.2834 59.3078 53.6817 50.775 55.7714 45.9393C57.1377 42.135 56.1063 41.1437 55.4499 40.8758Z" fill="url(#paint2_linear_446_298)"/>
<path d="M28.3915 22.4176C28.0835 21.3058 26.6903 20.9441 24.6141 21.5201C22.8593 22.0157 19.2693 24.0518 17.5681 28.2178C17.26 28.9813 18.1039 29.1153 18.4656 28.5795C19.7114 26.7309 23.5826 23.7303 27.1056 23.1409C28.5389 22.8998 28.3915 22.4176 28.3915 22.4176Z" fill="url(#paint3_linear_446_298)"/>
<path d="M28.2039 31.3654C26.208 30.133 23.636 30.267 21.7607 31.6735C20.8096 32.3969 19.8719 33.4953 19.3227 35.2099C19.229 35.4912 19.162 35.7993 19.1486 36.1074C19.1084 36.7236 19.5371 37.2728 20.2336 36.6298C25.5516 31.6065 29.2755 36.7772 29.2755 36.7772C29.9988 37.2996 30.7356 36.2145 30.5882 35.2099C30.548 34.9152 30.5079 34.6071 30.4409 34.3392C30.0122 32.8657 29.1415 31.9414 28.2039 31.3654Z" fill="url(#paint4_radial_446_298)"/>
<path d="M55.0614 40.7954C55.0212 40.7954 54.981 40.7954 54.9274 40.8088C48.7924 42.577 42.4296 43.4745 35.9864 43.4745C29.5432 43.4745 23.1804 42.577 17.0454 40.8088C17.0052 40.7954 16.965 40.7954 16.9114 40.7954C16.4962 40.8356 14.5137 41.2509 16.2149 45.9392V45.9526C17.0454 47.9083 18.4251 50.4669 20.5817 52.8111C18.559 50.4133 21.0506 49.0871 25.4844 49.623C29.9183 50.1588 35.9864 50.1722 35.9864 50.1722C35.9864 50.1722 42.0411 50.1588 46.4884 49.623C50.9222 49.0871 53.4138 50.4133 51.3911 52.8111C53.5477 50.4669 54.9274 47.9083 55.7579 45.9526V45.9392C57.4591 41.2375 55.4766 40.8222 55.0614 40.7954Z" fill="url(#paint5_linear_446_298)"/>
<path d="M51.6457 47.3861C53.3335 47.0245 54.606 45.618 54.7668 43.89L54.9275 42.2021C48.7924 43.9301 42.4297 44.8142 35.9999 44.8142C29.5701 44.8142 23.2073 43.9301 17.0723 42.2021L17.233 43.89C17.3938 45.6046 18.6663 47.0111 20.3541 47.3861C25.4711 48.498 30.7221 49.0472 35.9999 49.0472C41.2777 49.0472 46.5286 48.4846 51.6457 47.3861Z" fill="url(#paint6_radial_446_298)"/>
<path d="M30.4275 34.3258C30.2399 33.723 29.9854 33.2006 29.7041 32.7719C29.2755 32.1557 28.753 31.7003 28.2038 31.3654C26.2079 30.133 23.636 30.267 21.7607 31.6735C20.8096 32.3969 19.8719 33.4953 19.3227 35.2099C19.2691 35.3706 19.2289 35.5448 19.2021 35.7189V35.7323C21.5463 32.0754 24.922 31.8209 24.922 31.8209C24.922 31.8209 28.2708 31.5396 30.5346 34.808C30.5078 34.6473 30.4676 34.4865 30.4275 34.3258Z" fill="url(#paint7_linear_446_298)"/>
<path d="M43.6085 22.4176C43.9166 21.3058 45.3097 20.9441 47.386 21.5201C49.1408 22.0157 52.7308 24.0518 54.432 28.2178C54.7401 28.9813 53.8962 29.1153 53.5345 28.5795C52.2887 26.7309 48.4175 23.7303 44.8945 23.1409C43.4612 22.8998 43.6085 22.4176 43.6085 22.4176Z" fill="url(#paint8_linear_446_298)"/>
<path d="M43.7962 31.3654C45.7921 30.133 48.364 30.267 50.2393 31.6735C51.1904 32.3969 52.1281 33.4953 52.6773 35.2099C52.771 35.4912 52.838 35.7993 52.8514 36.1074C52.8916 36.7236 52.463 37.2728 51.7664 36.6298C46.4484 31.6065 42.7245 36.7772 42.7245 36.7772C42.0012 37.2996 41.2644 36.2145 41.4118 35.2099C41.452 34.9152 41.4922 34.6071 41.5591 34.3392C41.9878 32.8657 42.8585 31.9414 43.7962 31.3654Z" fill="url(#paint9_radial_446_298)"/>
<path d="M41.5723 34.3258C41.7598 33.723 42.0143 33.2006 42.2956 32.7719C42.7243 32.1557 43.2467 31.7003 43.7959 31.3654C45.7918 30.133 48.3637 30.267 50.239 31.6735C51.1901 32.3969 52.1278 33.4953 52.677 35.2099C52.7306 35.3706 52.7708 35.5448 52.7976 35.7189V35.7323C50.4534 32.0754 47.0777 31.8209 47.0777 31.8209C47.0777 31.8209 43.7289 31.5396 41.4651 34.808C41.4919 34.6473 41.5321 34.4865 41.5723 34.3258Z" fill="url(#paint10_linear_446_298)"/>
<path d="M52.4093 49.4759C52.6103 49.1812 52.2888 48.8062 51.9673 48.9535C49.9044 49.851 45.0017 51.4049 36 51.4049C26.7036 51.4049 22.0287 49.9046 20.0461 48.9937C19.7247 48.8464 19.4032 49.2214 19.6041 49.5161C22.4305 53.6821 27.4404 58.049 36 58.049C44.5596 58.0356 49.5695 53.6553 52.4093 49.4759Z" fill="url(#paint11_radial_446_298)"/>
<defs>
<radialGradient id="paint0_radial_446_298" cx="0" cy="0" r="1" gradientUnits="userSpaceOnUse" gradientTransform="translate(30.3335 24.3285) scale(34.7435)">
<stop stop-color="#FFDF30"/>
<stop offset="1" stop-color="#FFB82E"/>
</radialGradient>
<radialGradient id="paint1_radial_446_298" cx="0" cy="0" r="1" gradientUnits="userSpaceOnUse" gradientTransform="translate(30.3335 24.3285) scale(27.3342)">
<stop stop-color="#FFE95F"/>
<stop offset="1" stop-color="#FFBB47" stop-opacity="0"/>
</radialGradient>
<linearGradient id="paint2_linear_446_298" x1="15.5558" y1="50.0566" x2="56.4439" y2="50.0566" gradientUnits="userSpaceOnUse">
<stop offset="0.00132565" stop-color="#3C2200"/>
<stop offset="0.5" stop-color="#512D00"/>
<stop offset="1" stop-color="#3C2200"/>
</linearGradient>
<linearGradient id="paint3_linear_446_298" x1="23.0566" y1="25.909" x2="22.2381" y2="22.9866" gradientUnits="userSpaceOnUse">
<stop offset="0.00132565" stop-color="#3C2200"/>
<stop offset="1" stop-color="#7A4400"/>
</linearGradient>
<radialGradient id="paint4_radial_446_298" cx="0" cy="0" r="1" gradientUnits="userSpaceOnUse" gradientTransform="translate(24.8967 33.9053) rotate(175.474) scale(4.44318 3.15059)">
<stop offset="0.00132565" stop-color="#7A4400"/>
<stop offset="1" stop-color="#643800"/>
</radialGradient>
<linearGradient id="paint5_linear_446_298" x1="56.2149" y1="46.7953" x2="16.0304" y2="46.7953" gradientUnits="userSpaceOnUse">
<stop offset="0.00132565" stop-color="#3C2200"/>
<stop offset="0.5" stop-color="#512D00"/>
<stop offset="1" stop-color="#3C2200"/>
</linearGradient>
<radialGradient id="paint6_radial_446_298" cx="0" cy="0" r="1" gradientUnits="userSpaceOnUse" gradientTransform="translate(35.9999 45.6309) scale(34.7932)">
<stop offset="0.00132565" stop-color="white"/>
<stop offset="1" stop-color="#A8BBBD"/>
</radialGradient>
<linearGradient id="paint7_linear_446_298" x1="25.364" y1="28.311" x2="25.0113" y2="33.147" gradientUnits="userSpaceOnUse">
<stop offset="0.00132565" stop-color="#3C2200"/>
<stop offset="1" stop-color="#512D00"/>
</linearGradient>
<linearGradient id="paint8_linear_446_298" x1="48.9702" y1="25.9138" x2="49.7887" y2="22.9913" gradientUnits="userSpaceOnUse">
<stop offset="0.00132565" stop-color="#3C2200"/>
<stop offset="1" stop-color="#7A4400"/>
</linearGradient>
<radialGradient id="paint9_radial_446_298" cx="0" cy="0" r="1" gradientUnits="userSpaceOnUse" gradientTransform="translate(47.0714 33.9048) rotate(4.52559) scale(4.44318 3.15059)">
<stop offset="0.00132565" stop-color="#7A4400"/>
<stop offset="1" stop-color="#643800"/>
</radialGradient>
<linearGradient id="paint10_linear_446_298" x1="46.6112" y1="28.3123" x2="46.9639" y2="33.1484" gradientUnits="userSpaceOnUse">
<stop offset="0.00132565" stop-color="#3C2200"/>
<stop offset="1" stop-color="#512D00"/>
</linearGradient>
<radialGradient id="paint11_radial_446_298" cx="0" cy="0" r="1" gradientUnits="userSpaceOnUse" gradientTransform="translate(36.0062 53.4779) scale(34.2827)">
<stop offset="0.00132565" stop-color="white"/>
<stop offset="1" stop-color="#A8BBBD"/>
</radialGradient>
</defs>
</svg>
