<svg width="72" height="72" viewBox="0 0 72 72" fill="none" xmlns="http://www.w3.org/2000/svg">
<path d="M48.6901 62.2981C47.1961 62.2981 45.5761 61.9921 43.8481 61.2541C43.4881 61.0921 43.3081 60.678 43.4701 60.318C43.6321 59.958 44.0461 59.7781 44.4061 59.9401C49.8781 62.2441 54.1441 59.8141 56.3221 56.772C56.5561 56.448 57.0061 56.376 57.3301 56.61C57.6541 56.844 57.7261 57.294 57.4921 57.618C55.6921 60.12 52.6141 62.2981 48.6901 62.2981Z" fill="url(#paint0_linear_446_1998)"/>
<path d="M35.9999 64.8002C51.9057 64.8002 64.7999 51.906 64.7999 36.0002C64.7999 20.0944 51.9057 7.2002 35.9999 7.2002C20.0941 7.2002 7.19995 20.0944 7.19995 36.0002C7.19995 51.906 20.0941 64.8002 35.9999 64.8002Z" fill="url(#paint1_radial_446_1998)"/>
<path opacity="0.5" d="M35.9999 64.8002C51.9057 64.8002 64.7999 51.906 64.7999 36.0002C64.7999 20.0944 51.9057 7.2002 35.9999 7.2002C20.0941 7.2002 7.19995 20.0944 7.19995 36.0002C7.19995 51.906 20.0941 64.8002 35.9999 64.8002Z" fill="url(#paint2_radial_446_1998)"/>
<path opacity="0.5" d="M44.856 45.5041C47.178 45.6481 49.338 45.0901 51.174 44.0101C51.66 43.7221 52.29 43.7761 52.704 44.1721C52.866 44.3341 53.028 44.4421 53.226 44.5321C53.622 46.0441 54.468 47.3761 55.314 48.6721C56.718 50.8501 57.96 52.7941 57.222 55.4401C57.798 54.8101 58.338 54.1621 58.86 53.4961C58.716 51.3361 57.582 49.5541 56.52 47.8981C55.818 46.8001 55.134 45.7381 54.756 44.6041C55.008 44.5141 55.242 44.3701 55.44 44.1541C56.106 43.4881 56.178 42.4621 55.674 41.7061C55.638 41.6701 55.62 41.6161 55.584 41.5801C55.584 41.5801 55.584 41.5801 55.584 41.5621C55.548 41.5081 55.494 41.4721 55.458 41.4181L54.738 40.7161C56.124 38.7181 56.898 36.2521 56.718 33.6061C56.358 27.9181 51.642 23.3641 45.936 23.1841C39.492 22.9861 34.218 28.2421 34.416 34.7041C34.614 40.4281 39.15 45.1441 44.856 45.5041ZM45.576 25.2181C50.634 25.2181 54.72 29.3221 54.72 34.3621C54.72 39.4021 50.616 43.5061 45.576 43.5061C40.518 43.5061 36.432 39.4021 36.432 34.3621C36.432 29.3221 40.536 25.2181 45.576 25.2181Z" fill="url(#paint3_radial_446_1998)"/>
<path d="M26.6035 37.224C28.1345 37.224 29.3755 35.3462 29.3755 33.0299C29.3755 30.7137 28.1345 28.8359 26.6035 28.8359C25.0726 28.8359 23.8315 30.7137 23.8315 33.0299C23.8315 35.3462 25.0726 37.224 26.6035 37.224Z" fill="url(#paint4_radial_446_1998)"/>
<path d="M26.6035 30.2581C27.7915 30.2581 28.8355 31.3021 29.3755 32.8321C29.3395 30.5641 28.1155 28.7461 26.6035 28.7461C25.0915 28.7461 23.8675 30.5641 23.8315 32.8321C24.3715 31.3021 25.3975 30.2581 26.6035 30.2581Z" fill="url(#paint5_linear_446_1998)"/>
<path d="M45.396 37.224C46.927 37.224 48.168 35.3462 48.168 33.0299C48.168 30.7137 46.927 28.8359 45.396 28.8359C43.8651 28.8359 42.624 30.7137 42.624 33.0299C42.624 35.3462 43.8651 37.224 45.396 37.224Z" fill="url(#paint6_radial_446_1998)"/>
<path d="M45.396 30.3665C44.208 30.3665 43.164 31.4105 42.624 32.9405C42.66 30.6725 43.884 28.8545 45.396 28.8545C46.908 28.8545 48.132 30.6725 48.168 32.9405C47.628 31.4105 46.584 30.3665 45.396 30.3665Z" fill="url(#paint7_linear_446_1998)"/>
<path d="M30.9058 24.6418C29.8618 24.6958 28.9078 24.6779 26.6038 23.9939C23.2018 23.0039 22.3738 23.7599 20.1418 25.7939C19.9798 25.9379 19.7998 26.0999 19.6198 26.2619C19.2598 26.5859 19.2058 27.1798 19.5298 27.6478C19.7278 27.9358 20.5198 28.4039 21.2218 27.8098C23.3998 25.9918 25.0018 26.1898 26.9278 26.6578C28.4578 27.0178 30.0418 27.4138 31.7338 26.5858C32.4178 26.2618 32.5978 25.7759 32.4358 25.2539C32.2378 24.6059 31.6438 24.5878 30.9058 24.6418Z" fill="url(#paint8_linear_446_1998)"/>
<path d="M41.2199 21.2219C42.2639 21.1319 43.1459 20.8619 45.3959 19.9439C48.1859 18.8099 50.0939 19.3859 52.0379 20.7719C52.2179 20.8979 52.4159 21.0239 52.6319 21.1679C53.0459 21.4379 53.1719 22.0319 52.9199 22.5179C52.7759 22.8239 52.0379 23.3999 51.2639 22.9319C48.8339 21.4559 47.2859 21.8879 45.4499 22.6259C43.9919 23.2199 42.4799 23.8319 40.6799 23.2559C39.9599 23.0219 39.7079 22.5899 39.7799 22.0499C39.8879 21.4019 40.4819 21.2939 41.2199 21.2219Z" fill="url(#paint9_linear_446_1998)"/>
<path d="M44.3522 54.0723C44.2262 54.0723 44.1182 54.0542 43.9922 54.0182C43.9562 54.0182 41.1842 53.2262 37.8182 52.7582C33.5162 52.1642 30.2222 52.3082 28.2782 53.2082C27.6482 53.4962 26.8922 53.2262 26.6042 52.5962C26.3162 51.9662 26.5862 51.2103 27.2162 50.9223C32.8682 48.2943 44.1902 51.4442 44.6582 51.5882C45.3242 51.7682 45.7202 52.4702 45.5222 53.1362C45.3962 53.6942 44.8922 54.0543 44.3522 54.0723Z" fill="#643800"/>
<path d="M45.5937 52.7582C45.5757 52.2182 45.2157 51.7502 44.6757 51.5882C44.1897 51.4442 32.8857 48.3122 27.2337 50.9222C26.6397 51.1922 26.3697 51.8582 26.5677 52.4522C29.1237 50.5442 33.4077 49.5722 45.5937 52.7582Z" fill="url(#paint10_linear_446_1998)"/>
<path d="M56.8983 57.8884C56.7723 57.8884 56.6283 57.8524 56.5203 57.7804C56.1783 57.5644 56.0883 57.1144 56.3043 56.7904C58.8423 52.8124 57.2943 50.4004 55.5123 47.6104C54.3783 45.8464 53.2083 44.0104 53.2083 41.7244C53.2083 41.3284 53.5323 41.0044 53.9283 41.0044C54.3243 41.0044 54.6483 41.3284 54.6483 41.7244C54.6483 43.5784 55.6563 45.1624 56.7363 46.8364C58.5363 49.6264 60.5703 52.8124 57.5283 57.5644C57.3663 57.7804 57.1323 57.8884 56.8983 57.8884Z" fill="url(#paint11_linear_446_1998)"/>
<path d="M45.3956 22.7886C39.5996 22.7886 34.9016 27.4866 34.9016 33.2826C34.9016 39.0786 39.5996 43.7766 45.3956 43.7766C51.1916 43.7766 55.8896 39.0786 55.8896 33.2826C55.9076 27.4866 51.1916 22.7886 45.3956 22.7886ZM45.3956 42.4266C40.3376 42.4266 36.2516 38.3226 36.2516 33.2826C36.2516 28.2246 40.3556 24.1386 45.3956 24.1386C50.4356 24.1386 54.5396 28.2426 54.5396 33.2826C54.5396 38.3406 50.4536 42.4266 45.3956 42.4266Z" fill="url(#paint12_linear_446_1998)"/>
<path d="M45.3958 22.1221C39.2398 22.1221 34.2358 27.1261 34.2358 33.2821C34.2358 39.4381 39.2398 44.4421 45.3958 44.4421C51.5519 44.4421 56.5559 39.4381 56.5559 33.2821C56.5559 27.1261 51.5699 22.1221 45.3958 22.1221ZM45.3958 43.2361C39.8878 43.2361 35.4418 38.7721 35.4418 33.2821C35.4418 27.7921 39.9058 23.3281 45.3958 23.3281C50.8859 23.3281 55.3499 27.7921 55.3499 33.2821C55.3499 38.7721 50.9039 43.2361 45.3958 43.2361Z" fill="url(#paint13_linear_446_1998)"/>
<path d="M45.3959 41.7781C50.0881 41.7781 53.8919 37.9744 53.8919 33.2821C53.8919 28.5899 50.0881 24.7861 45.3959 24.7861C40.7037 24.7861 36.8999 28.5899 36.8999 33.2821C36.8999 37.9744 40.7037 41.7781 45.3959 41.7781Z" fill="url(#paint14_radial_446_1998)"/>
<path opacity="0.5" d="M48.042 24.534C52.884 25.992 55.62 31.086 54.162 35.928C52.704 40.77 47.61 43.506 42.768 42.048C37.926 40.59 35.19 35.496 36.648 30.654C38.106 25.812 43.2 23.076 48.042 24.534Z" fill="url(#paint15_radial_446_1998)"/>
<path d="M55.5119 40.6441C55.4759 40.6081 55.4579 40.5541 55.4219 40.5181C55.4219 40.5181 55.4219 40.5181 55.4219 40.5001C55.3859 40.4461 55.3319 40.4101 55.2959 40.3561L54.2339 39.3301C53.8739 39.8701 53.4419 40.3741 52.9739 40.8421C52.5059 41.3101 51.9839 41.7241 51.4619 42.1021L52.5599 43.0921C53.3159 43.8481 54.5399 43.8481 55.2959 43.0921C55.9439 42.4261 56.0159 41.4001 55.5119 40.6441Z" fill="url(#paint16_linear_446_1998)"/>
<path d="M53.9101 42.5341C54.3575 42.5341 54.7201 42.1714 54.7201 41.7241C54.7201 41.2767 54.3575 40.9141 53.9101 40.9141C53.4627 40.9141 53.1001 41.2767 53.1001 41.7241C53.1001 42.1714 53.4627 42.5341 53.9101 42.5341Z" fill="url(#paint17_linear_446_1998)"/>
<defs>
<linearGradient id="paint0_linear_446_1998" x1="51.7048" y1="58.4782" x2="55.1248" y2="56.1382" gradientUnits="userSpaceOnUse">
<stop offset="0.00132565" stop-color="#643800"/>
<stop offset="1" stop-color="#975500"/>
</linearGradient>
<radialGradient id="paint1_radial_446_1998" cx="0" cy="0" r="1" gradientUnits="userSpaceOnUse" gradientTransform="translate(30.3315 24.328) scale(34.7435)">
<stop stop-color="#FFE030"/>
<stop offset="1" stop-color="#FFB92E"/>
</radialGradient>
<radialGradient id="paint2_radial_446_1998" cx="0" cy="0" r="1" gradientUnits="userSpaceOnUse" gradientTransform="translate(30.3315 24.328) scale(27.3342)">
<stop stop-color="#FFEA5F"/>
<stop offset="1" stop-color="#FFBC47" stop-opacity="0"/>
</radialGradient>
<radialGradient id="paint3_radial_446_1998" cx="0" cy="0" r="1" gradientUnits="userSpaceOnUse" gradientTransform="translate(44.6723 41.8744) scale(30.4174)">
<stop stop-color="#7A4400" stop-opacity="0.5"/>
<stop offset="0.5833" stop-color="#894D00" stop-opacity="0.2069"/>
<stop offset="0.995" stop-color="#975500" stop-opacity="0"/>
</radialGradient>
<radialGradient id="paint4_radial_446_1998" cx="0" cy="0" r="1" gradientUnits="userSpaceOnUse" gradientTransform="translate(25.7388 33.142) rotate(73.8539) scale(4.06924 2.63273)">
<stop offset="0.00132565" stop-color="#7A4400"/>
<stop offset="1" stop-color="#643800"/>
</radialGradient>
<linearGradient id="paint5_linear_446_1998" x1="26.5947" y1="28.8193" x2="26.5947" y2="32.7279" gradientUnits="userSpaceOnUse">
<stop offset="0.00132565" stop-color="#3C2200"/>
<stop offset="1" stop-color="#512D00"/>
</linearGradient>
<radialGradient id="paint6_radial_446_1998" cx="0" cy="0" r="1" gradientUnits="userSpaceOnUse" gradientTransform="translate(44.5458 33.1427) rotate(73.8539) scale(4.06924 2.63273)">
<stop offset="0.00132565" stop-color="#7A4400"/>
<stop offset="1" stop-color="#643800"/>
</radialGradient>
<linearGradient id="paint7_linear_446_1998" x1="45.4009" y1="28.9226" x2="45.4009" y2="32.8312" gradientUnits="userSpaceOnUse">
<stop offset="0.00132565" stop-color="#3C2200"/>
<stop offset="1" stop-color="#512D00"/>
</linearGradient>
<linearGradient id="paint8_linear_446_1998" x1="25.7245" y1="28.6393" x2="25.9919" y2="25.0737" gradientUnits="userSpaceOnUse">
<stop offset="0.00132565" stop-color="#3C2200"/>
<stop offset="1" stop-color="#512D00"/>
</linearGradient>
<linearGradient id="paint9_linear_446_1998" x1="46.936" y1="24.4276" x2="46.1673" y2="21.0394" gradientUnits="userSpaceOnUse">
<stop offset="0.00132565" stop-color="#3C2200"/>
<stop offset="1" stop-color="#512D00"/>
</linearGradient>
<linearGradient id="paint10_linear_446_1998" x1="36.1799" y1="55.5901" x2="35.6411" y2="42.8765" gradientUnits="userSpaceOnUse">
<stop offset="0.00132565" stop-color="#3C2200"/>
<stop offset="1" stop-color="#512D00"/>
</linearGradient>
<linearGradient id="paint11_linear_446_1998" x1="53.313" y1="43.8284" x2="57.0699" y2="53.0228" gradientUnits="userSpaceOnUse">
<stop offset="0.00132565" stop-color="#643800"/>
<stop offset="1" stop-color="#975500"/>
</linearGradient>
<linearGradient id="paint12_linear_446_1998" x1="42.8968" y1="24.6398" x2="52.2568" y2="56.9498" gradientUnits="userSpaceOnUse">
<stop/>
<stop offset="1" stop-color="#8EA5A8"/>
</linearGradient>
<linearGradient id="paint13_linear_446_1998" x1="48.6663" y1="51.3017" x2="41.1963" y2="10.0817" gradientUnits="userSpaceOnUse">
<stop/>
<stop offset="1" stop-color="#8EA5A8"/>
</linearGradient>
<radialGradient id="paint14_radial_446_1998" cx="0" cy="0" r="1" gradientUnits="userSpaceOnUse" gradientTransform="translate(41.4233 28.911) scale(11.505)">
<stop stop-color="white" stop-opacity="0.5"/>
<stop offset="1" stop-color="white" stop-opacity="0"/>
</radialGradient>
<radialGradient id="paint15_radial_446_1998" cx="0" cy="0" r="1" gradientUnits="userSpaceOnUse" gradientTransform="translate(42.1449 27.9456) rotate(-163.238) scale(19.1756 19.175)">
<stop stop-color="white" stop-opacity="0.24"/>
<stop offset="1" stop-color="white" stop-opacity="0"/>
</radialGradient>
<linearGradient id="paint16_linear_446_1998" x1="52.6656" y1="42.0956" x2="58.4256" y2="39.8906" gradientUnits="userSpaceOnUse">
<stop/>
<stop offset="1" stop-color="#8EA5A8"/>
</linearGradient>
<linearGradient id="paint17_linear_446_1998" x1="52.887" y1="46.6141" x2="54.087" y2="40.8541" gradientUnits="userSpaceOnUse">
<stop/>
<stop offset="1" stop-color="#8EA5A8"/>
</linearGradient>
</defs>
</svg>
