<svg width="72" height="72" viewBox="0 0 72 72" fill="none" xmlns="http://www.w3.org/2000/svg">
<path d="M35.9999 64.8002C51.9057 64.8002 64.7999 51.906 64.7999 36.0002C64.7999 20.0944 51.9057 7.2002 35.9999 7.2002C20.0941 7.2002 7.19995 20.0944 7.19995 36.0002C7.19995 51.906 20.0941 64.8002 35.9999 64.8002Z" fill="url(#paint0_radial_446_1772)"/>
<path opacity="0.5" d="M35.9999 64.8002C51.9057 64.8002 64.7999 51.906 64.7999 36.0002C64.7999 20.0944 51.9057 7.2002 35.9999 7.2002C20.0941 7.2002 7.19995 20.0944 7.19995 36.0002C7.19995 51.906 20.0941 64.8002 35.9999 64.8002Z" fill="url(#paint1_radial_446_1772)"/>
<path d="M28.3859 20.6098C28.0799 19.4938 26.6759 19.1338 24.6059 19.7098C22.8419 20.1958 19.2599 22.2478 17.5679 26.4058C17.2619 27.1798 18.1079 27.3058 18.4679 26.7658C19.7099 24.9298 23.5979 21.9058 27.1079 21.3298C28.5299 21.1138 28.3859 20.6098 28.3859 20.6098Z" fill="url(#paint2_linear_446_1772)"/>
<path d="M28.2059 29.5564C26.2079 28.3144 23.6339 28.4584 21.7619 29.8624C20.8079 30.5824 19.8719 31.6804 19.3139 33.3904C19.2239 33.6784 19.1519 33.9844 19.1339 34.2904C19.0979 34.9024 19.5299 35.4604 20.2139 34.8124C25.5419 29.7904 29.2679 34.9564 29.2679 34.9564C29.9879 35.4784 30.7259 34.3984 30.5819 33.3904C30.5459 33.1024 30.5099 32.7964 30.4199 32.5264C30.0239 31.0684 29.1419 30.1504 28.2059 29.5564Z" fill="url(#paint3_radial_446_1772)"/>
<path d="M30.4378 32.5264C30.2398 31.9144 29.9878 31.4104 29.7178 30.9784C29.2858 30.3664 28.7638 29.9164 28.2238 29.5744C26.2258 28.3324 23.6518 28.4764 21.7798 29.8804C20.8258 30.6004 19.8898 31.6984 19.3318 33.4084C19.2778 33.5704 19.2418 33.7504 19.2058 33.9304C19.2058 33.9304 19.2058 33.9304 19.2058 33.9484C21.5458 30.2944 24.9298 30.0424 24.9298 30.0424C24.9298 30.0424 28.2778 29.7544 30.5458 33.0304C30.5098 32.8504 30.4738 32.6884 30.4378 32.5264Z" fill="url(#paint4_linear_446_1772)"/>
<path d="M43.6139 20.6098C43.9199 19.4938 45.3239 19.1338 47.394 19.7098C49.158 20.1958 52.74 22.2478 54.432 26.4058C54.738 27.1798 53.892 27.3058 53.532 26.7658C52.29 24.9298 48.4019 21.9058 44.8919 21.3298C43.4699 21.1138 43.6139 20.6098 43.6139 20.6098Z" fill="url(#paint5_linear_446_1772)"/>
<path d="M43.7941 29.5564C45.7921 28.3144 48.3661 28.4584 50.2381 29.8624C51.1921 30.5824 52.1281 31.6804 52.6861 33.3904C52.7761 33.6784 52.8481 33.9844 52.8661 34.2904C52.9021 34.9024 52.4701 35.4604 51.7861 34.8124C46.4581 29.7904 42.7321 34.9564 42.7321 34.9564C42.0121 35.4784 41.2741 34.3984 41.4181 33.3904C41.4541 33.1024 41.4901 32.7964 41.5801 32.5264C41.9761 31.0684 42.8581 30.1504 43.7941 29.5564Z" fill="url(#paint6_radial_446_1772)"/>
<path d="M41.5621 32.5264C41.7601 31.9144 42.0121 31.4104 42.2821 30.9784C42.7141 30.3664 43.2361 29.9164 43.7761 29.5744C45.7741 28.3324 48.3481 28.4764 50.2201 29.8804C51.1741 30.6004 52.1101 31.6984 52.6681 33.4084C52.7221 33.5704 52.7581 33.7504 52.7941 33.9304C52.7941 33.9304 52.7941 33.9304 52.7941 33.9484C50.4541 30.2944 47.0701 30.0424 47.0701 30.0424C47.0701 30.0424 43.7221 29.7544 41.4541 33.0304C41.4901 32.8504 41.5261 32.6884 41.5621 32.5264Z" fill="url(#paint7_linear_446_1772)"/>
<path d="M35.9999 64.8002C51.9057 64.8002 64.7999 51.906 64.7999 36.0002C64.7999 20.0944 51.9057 7.2002 35.9999 7.2002C20.0941 7.2002 7.19995 20.0944 7.19995 36.0002C7.19995 51.906 20.0941 64.8002 35.9999 64.8002Z" fill="url(#paint8_radial_446_1772)"/>
<path d="M53.0457 50.6699C47.8797 50.2559 47.8797 50.2559 47.8797 50.2559L45.5757 54.2519C48.7437 56.2679 48.0417 60.4979 47.8437 62.2439C51.7317 60.4799 55.1517 57.8879 57.8877 54.7019C57.0597 52.8119 55.6017 50.8859 53.0457 50.6699Z" fill="url(#paint9_radial_446_1772)"/>
<path d="M36.0002 56.4301C48.8882 56.4301 53.2982 46.9801 54.5042 44.6401C55.7102 42.3001 53.6222 41.2381 52.8662 42.8761C50.6882 47.5201 45.3782 53.9641 36.0002 53.9641C26.6222 53.9641 21.3122 47.5201 19.1342 42.8761C18.3782 41.2561 16.2902 42.3001 17.4962 44.6401C18.7022 46.9801 23.1122 56.4301 36.0002 56.4301Z" fill="url(#paint10_radial_446_1772)"/>
<path d="M52.8662 42.8759C50.6882 47.5199 45.3782 53.9639 36.0002 53.9639C26.6222 53.9639 21.3122 47.5199 19.1342 42.8759C18.3782 41.2559 16.2902 42.2999 17.4962 44.6399C17.4962 44.6399 17.8922 42.8399 18.5402 43.7039C20.1242 45.8099 23.7062 54.8459 36.0002 54.8459C39.6542 54.8459 42.3902 53.7119 44.8202 52.8299C45.9722 52.4159 46.2422 53.8919 46.2422 53.8919C46.2422 53.8919 46.9082 53.5679 47.2502 53.2619C47.4662 53.0819 46.4402 51.9299 46.6562 51.7679C50.7422 48.9419 52.4702 44.9999 53.4422 43.7039C54.0902 42.8399 54.4862 44.6399 54.4862 44.6399C55.6922 42.2999 53.6222 41.2559 52.8662 42.8759Z" fill="#3C2200"/>
<path d="M58.9319 47.9521L54.8099 44.0281C54.5939 43.7941 53.7299 43.2361 52.7039 43.1821C51.4079 45.8461 49.0859 49.0141 45.6119 51.2281C45.4679 51.6421 45.9719 51.9481 46.0619 52.0381L50.1479 56.3222C52.6859 58.9682 56.8079 59.3642 59.2199 57.0422C61.6319 54.7201 61.4699 50.6161 58.9319 47.9521Z" fill="url(#paint11_linear_446_1772)"/>
<path d="M58.9319 47.9521L54.8099 44.0281C54.5939 43.7941 53.7299 43.2361 52.7039 43.1821C51.4079 45.8461 49.1039 49.0141 45.63 51.2101C45.486 51.6241 45.99 51.9301 46.08 52.0201L50.1659 56.3042C52.7039 58.9502 56.8259 59.3462 59.2379 57.0242C61.6499 54.7021 61.4699 50.6161 58.9319 47.9521Z" fill="url(#paint12_linear_446_1772)"/>
<path d="M58.9319 47.9521L54.8099 44.0281C54.5939 43.7941 53.7299 43.2361 52.7039 43.1821C51.4079 45.8461 49.1039 49.0141 45.63 51.2101C45.486 51.6241 45.99 51.9301 46.08 52.0201L50.1659 56.3042C52.7039 58.9502 56.8259 59.3462 59.2379 57.0242C61.6499 54.7021 61.4699 50.6161 58.9319 47.9521Z" fill="url(#paint13_radial_446_1772)"/>
<path d="M51.0659 49.3923L51.9839 48.5283C57.8699 54.6843 57.7439 54.9723 57.4919 55.2063C57.2219 55.4583 56.9159 55.5303 51.0659 49.3923Z" fill="url(#paint14_linear_446_1772)"/>
<defs>
<radialGradient id="paint0_radial_446_1772" cx="0" cy="0" r="1" gradientUnits="userSpaceOnUse" gradientTransform="translate(30.3335 24.3285) scale(34.7435)">
<stop stop-color="#FFE030"/>
<stop offset="1" stop-color="#FFB92E"/>
</radialGradient>
<radialGradient id="paint1_radial_446_1772" cx="0" cy="0" r="1" gradientUnits="userSpaceOnUse" gradientTransform="translate(30.3335 24.3285) scale(27.3342)">
<stop stop-color="#FFEA5F"/>
<stop offset="1" stop-color="#FFBC47" stop-opacity="0"/>
</radialGradient>
<linearGradient id="paint2_linear_446_1772" x1="23.0494" y1="24.1105" x2="22.231" y2="21.1881" gradientUnits="userSpaceOnUse">
<stop offset="0.00132565" stop-color="#3C2200"/>
<stop offset="1" stop-color="#7A4400"/>
</linearGradient>
<radialGradient id="paint3_radial_446_1772" cx="0" cy="0" r="1" gradientUnits="userSpaceOnUse" gradientTransform="translate(24.9027 32.1046) rotate(175.474) scale(4.44319 3.15059)">
<stop offset="0.00132565" stop-color="#7A4400"/>
<stop offset="1" stop-color="#643800"/>
</radialGradient>
<linearGradient id="paint4_linear_446_1772" x1="25.3633" y1="26.511" x2="25.0106" y2="31.3471" gradientUnits="userSpaceOnUse">
<stop offset="0.00132565" stop-color="#3C2200"/>
<stop offset="1" stop-color="#512D00"/>
</linearGradient>
<linearGradient id="paint5_linear_446_1772" x1="48.9804" y1="24.1158" x2="49.7989" y2="21.1934" gradientUnits="userSpaceOnUse">
<stop offset="0.00132565" stop-color="#3C2200"/>
<stop offset="1" stop-color="#7A4400"/>
</linearGradient>
<radialGradient id="paint6_radial_446_1772" cx="0" cy="0" r="1" gradientUnits="userSpaceOnUse" gradientTransform="translate(47.0616 32.104) rotate(4.52558) scale(4.44319 3.15059)">
<stop offset="0.00132565" stop-color="#7A4400"/>
<stop offset="1" stop-color="#643800"/>
</radialGradient>
<linearGradient id="paint7_linear_446_1772" x1="46.6091" y1="26.5125" x2="46.9618" y2="31.3486" gradientUnits="userSpaceOnUse">
<stop offset="0.00132565" stop-color="#3C2200"/>
<stop offset="1" stop-color="#512D00"/>
</linearGradient>
<radialGradient id="paint8_radial_446_1772" cx="0" cy="0" r="1" gradientUnits="userSpaceOnUse" gradientTransform="translate(62.8819 65.4625) scale(20.5312)">
<stop stop-color="#FF4C00"/>
<stop offset="1" stop-color="#E74A3A" stop-opacity="0"/>
</radialGradient>
<radialGradient id="paint9_radial_446_1772" cx="0" cy="0" r="1" gradientUnits="userSpaceOnUse" gradientTransform="translate(50.1124 54.5747) scale(6.28856)">
<stop stop-color="#FF8000" stop-opacity="0.5"/>
<stop offset="0.995" stop-color="#FF8000" stop-opacity="0"/>
</radialGradient>
<radialGradient id="paint10_radial_446_1772" cx="0" cy="0" r="1" gradientUnits="userSpaceOnUse" gradientTransform="translate(36.0003 49.2633) scale(14.2689)">
<stop offset="0.00132565" stop-color="#7A4400"/>
<stop offset="1" stop-color="#643800"/>
</radialGradient>
<linearGradient id="paint11_linear_446_1772" x1="56.1289" y1="52.7102" x2="44.7811" y2="45.1113" gradientUnits="userSpaceOnUse">
<stop stop-color="#EF708C"/>
<stop offset="1" stop-color="#D93E15"/>
</linearGradient>
<linearGradient id="paint12_linear_446_1772" x1="59.347" y1="54.3191" x2="47.8269" y2="47.5991" gradientUnits="userSpaceOnUse">
<stop stop-color="#EF708C"/>
<stop offset="1" stop-color="#FF0000"/>
</linearGradient>
<radialGradient id="paint13_radial_446_1772" cx="0" cy="0" r="1" gradientUnits="userSpaceOnUse" gradientTransform="translate(38.4577 38.9749) scale(17.3896)">
<stop offset="0.6822" stop-color="#860805"/>
<stop offset="1" stop-color="#860805" stop-opacity="0"/>
</radialGradient>
<linearGradient id="paint14_linear_446_1772" x1="52.2073" y1="49.6769" x2="61.3627" y2="59.2672" gradientUnits="userSpaceOnUse">
<stop stop-color="#D93E15" stop-opacity="0"/>
<stop offset="1" stop-color="#D93E15"/>
</linearGradient>
</defs>
</svg>
